<?xml version="1.0" encoding="utf-8"?>
<!-- Generator: Adobe Illustrator 24.1.0, SVG Export Plug-In . SVG Version: 6.00 Build 0)  -->
<svg version="1.1" id="Capa_1" xmlns="http://www.w3.org/2000/svg" xmlns:xlink="http://www.w3.org/1999/xlink" x="0px" y="0px"
	 viewBox="0 0 1284 1144" style="enable-background:new 0 0 1284 1144;" xml:space="preserve">
<style type="text/css">
	.st0{fill:#D4D8E4;}
	.st1{fill:#7DB5DB;}
	.st2{fill:#FFFFFF;stroke:#E31513;stroke-width:10;stroke-miterlimit:10;}
	.st3{fill:#FFFFFF;stroke:#E7E6E6;stroke-width:10;stroke-miterlimit:10;}
	.st4{fill:#FFFFFF;stroke:#00A18A;stroke-width:10;stroke-miterlimit:10;}
	.st5{fill:#FFFFFF;stroke:#292523;stroke-width:10;stroke-miterlimit:10;}
	.st6{fill:#587BC9;}
	.st7{fill:#305399;}
	.st8{fill:#F7F7F7;}
	.st9{fill:#231F20;}
	.st10{fill:#F4C6BA;}
	.st11{fill:#282324;}
	.st12{fill:#193036;}
	.st13{fill:#0E2226;}
	.st14{fill:#ECECEC;}
	.st15{fill:#DADADB;}
	.st16{fill:#353031;}
	.st17{fill:#4169AF;}
	.st18{fill:#EF9C9C;}
	.st19{fill:none;stroke:#6C341E;stroke-width:1.2219;stroke-linecap:round;stroke-linejoin:round;stroke-miterlimit:10;}
	.st20{fill:#6C341E;}
	.st21{fill:#FF738F;}
	.st22{fill:#FFFFFF;}
	.st23{fill:#A9C3E4;}
</style>
<path class="st0" d="M886.5,1143.3c185,0,334.9-11.2,334.9-25c0-13.8-150-25-334.9-25c-185,0-335,11.2-335,25
	C551.5,1132.1,701.5,1143.3,886.5,1143.3z"/>
<path class="st1" d="M639.4,820.8c-298.9-13.4-501.8-93.6-589.1-310.2C-72.2,205.5,100.9,4.9,399.8,18s1040,417.5,853.8,972.4
	C1140.7,1327.4,938.3,833.9,639.4,820.8z"/>
<g id="molecule">
	<circle class="st2" cx="522.9" cy="268" r="76"/>
	
		<ellipse transform="matrix(0.7071 -0.7071 0.7071 0.7071 -198.1502 697.4721)" class="st3" cx="742.8" cy="587.9" rx="60" ry="60"/>
	<path class="st4" d="M657.7,570.4l40.2,4.9c6.2,0.8,10.7,6.5,10,12.7v0c-0.8,6.2-6.5,10.7-12.7,10l-40.2-4.9
		c-6.2-0.8-10.7-6.5-10-12.7l0,0C645.8,574.1,651.5,569.6,657.7,570.4z"/>
	<circle class="st3" cx="382.2" cy="682.7" r="60"/>
	<path class="st4" d="M517.4,621.3l-86.4,47c-5.5,3-12.5,0.9-15.5-4.6l0,0c-3-5.5-0.9-12.5,4.6-15.5l86.4-47
		c5.5-3,12.5-0.9,15.5,4.6l0,0C524.9,611.3,522.9,618.3,517.4,621.3z"/>
	<circle class="st5" cx="585.3" cy="581.2" r="85"/>
	<path class="st4" d="M628.1,626.1l34,42.6c3.9,4.9,3.1,12.1-1.8,16.1l0,0c-4.9,3.9-12.1,3.1-16.1-1.8l-34-42.6
		c-3.9-4.9-3.1-12.1,1.8-16.1h0C617,620.4,624.2,621.2,628.1,626.1z"/>
	<ellipse transform="matrix(0.7071 -0.7071 0.7071 0.7071 -304.9858 683.6772)" class="st3" cx="672.8" cy="710" rx="60" ry="60"/>
	<ellipse transform="matrix(0.7071 -0.7071 0.7071 0.7071 145.8149 492.0111)" class="st3" cx="666.8" cy="70" rx="60" ry="60"/>
	<path class="st4" d="M552.7,336.5l29.9,162.1c1.1,6.2-3,12.2-9.2,13.3l0,0c-6.2,1.1-12.2-3-13.3-9.2l-29.9-162.1
		c-1.1-6.2,3-12.2,9.2-13.3l0,0C545.6,326.2,551.6,330.3,552.7,336.5z"/>
	<path class="st4" d="M642.7,123.8l-67.1,94.3c-3.6,5.1-10.8,6.3-16,2.7l0,0c-5.1-3.6-6.3-10.8-2.7-16l67.1-94.3
		c3.6-5.1,10.8-6.3,16-2.7l0,0C645.1,111.5,646.3,118.6,642.7,123.8z"/>
</g>
<path class="st6" d="M1078.4,821.7c3-28.6,28.3-49.2,56.6-46.5c28.6,3,49.2,28.3,46.5,56.6c-3,28.6-28.3,49.2-56.6,46.5
	C1096.2,875.7,1075.7,850.3,1078.4,821.7z"/>
<path class="st7" d="M1137.7,160.8c0-8.6,6.8-15.5,15.5-15.5s15.5,6.9,15.5,15.5s-6.9,15.5-15.5,15.5S1137.7,169.4,1137.7,160.8z"/>
<path class="st8" d="M319.7,387.2c0-8.6,6.9-15.5,15.5-15.5s15.5,6.9,15.5,15.5s-6.9,15.5-15.5,15.5S319.7,395.9,319.7,387.2z"/>
<path class="st8" d="M1153.2,706.7c0-8.6,6.9-15.5,15.5-15.5s15.5,6.9,15.5,15.5c0,8.6-6.8,15.5-15.5,15.5
	S1153.2,715.3,1153.2,706.7z"/>
<path class="st8" d="M681.4,219.5c0-8.6,6.9-15.5,15.5-15.5c8.6,0,15.5,6.9,15.5,15.5s-6.9,15.5-15.5,15.5
	C688.3,234.7,681.4,227.8,681.4,219.5z"/>
<path class="st8" d="M733.3,665.3c0-8.6,6.9-15.5,15.5-15.5s15.5,6.9,15.5,15.5c0,8.6-6.9,15.5-15.5,15.5S733.3,673.9,733.3,665.3z"
	/>
<path class="st6" d="M356.6,38.9c0-21.5,17.3-38.7,38.7-38.7s38.7,17.3,38.7,38.7s-17.3,38.7-38.7,38.7S356.6,60.3,356.6,38.9z"/>
<path class="st7" d="M163.8,520.1c0-31.6,25.6-57.2,57.2-57.2s57.2,25.6,57.2,57.2s-25.6,57.2-57.2,57.2S163.8,551.7,163.8,520.1z"
	/>
<path class="st9" d="M861.7,1116.2c-5.7,4.5-122.5,2.4-124.9-9.2c-0.9-4.2,13.7-10.7,31.6-17c27.4-9.8,63.2-19.4,63.2-19.4l14.9,6
	l20,8.1c0,0,1.8-1.5,2.4,5.4C869.5,1096.5,867.4,1111.4,861.7,1116.2z"/>
<path class="st10" d="M836.1,1058.3l-5.1,18.8c0,0,12.5,14.6,34.9,9.5l5.7-21.8L836.1,1058.3z"/>
<path class="st10" d="M861.7,1087.2c0,0-68.5,20.3-79.6,14c-7.2-4.2-11.3-7.8-13.7-11c27.4-9.8,63.2-19.4,63.2-19.4l14.9,6
	L861.7,1087.2z"/>
<path class="st11" d="M990.8,636.7l-92.4-4.2c0,0,2.4,194,19.7,234.5C935.6,907.5,1000.6,925.4,990.8,636.7z"/>
<path class="st9" d="M1031.9,1053.6c0,0,1.2-2.1,4.2,4.2c3,6,6.5,20.9,3.3,27.1c-3.3,6.3-112.6,48.3-119.2,38.4
	c-6-8.9,73.9-69.4,73.9-69.4L1031.9,1053.6z"/>
<path class="st10" d="M993.7,1041.1l2.4,19.4c0,0,17,8.6,35.8-4.2l-3-22.3L993.7,1041.1z"/>
<path class="st10" d="M1015.5,1062.8c0,0-52.2,42.3-67.1,35.5c-14.9-6.9,50.1-47.7,50.1-47.7L1015.5,1062.8z"/>
<path class="st11" d="M915.4,857.8c0,0,21.8,46.2,43.2,113.2c21.5,66.7,27.4,71.2,27.4,71.2l48.9-9.8c0,0-47.1-236.6-49.5-264
	C983,740.7,915.4,857.8,915.4,857.8z"/>
<path class="st12" d="M1140.9,319c-10.4-36.7-40.8-46.2-50.7-85.8c-9.8-39.6,7.2-81.1-28.3-136.8C1026.2,40.4,948.4,63,948.4,63
	l-7.4,1.5l-7.5,1.8c0,0-80.5,10.4-90.9,75.7c-10.4,65.6-54.5,85.5-47.7,125.8s59,72.1,63.8,109.7c8.3,64.1,67.6,81.4,160.3,62.3
	C1111.4,420.3,1158.8,381,1140.9,319z"/>
<path class="st13" d="M1046.2,404.2c-23-59-38.4-124.6-29.8-188.3c0.6-5.1,1.5-10.1,2.4-14.9H862c5.1,10.7,8.3,22.6,8.9,35.2
	c1.5,34-22.3,63.8-52.7,76c17,21.8,37.5,42.3,40.5,65.3c8.3,64.1,67.6,81.4,160.3,62.3c13.4-2.7,25.9-6,37.5-9.8
	C1052.7,421.5,1049.5,412.9,1046.2,404.2z"/>
<path class="st14" d="M837,526.4c2.4-37.5-25-157-1.8-186.2c11.6-14.6,25.9-16.7,46.2-22.4l4.8,425.8h-70c-5.4,0-9.5-4.8-8.6-10.1
	C813.7,695.1,835.2,558.6,837,526.4z"/>
<path class="st15" d="M864.1,623.9c-1.8,9.8-5.1,19.4-9.5,28.6c0,0.3-0.3,0.6-0.6,1.2c-0.9,2.7-2.7,6.9-3,7.7
	c-2.4,6.6-4.2,13.1-6,19.7c-3.9,14.3-7.2,28.6-10.1,42.9c-1.5,6.6-2.7,13.1-4.2,19.7h56l-1.5-119.8H864.1L864.1,623.9z"/>
<path class="st14" d="M872.4,350c0,0-16.4,39.6-33.7,37c-32.2-4.8-141.8-58.7-141.8-58.7c-0.3-5.1,4.8-18.5,9.8-29.2
	c4.2-8.9,9.5-14.9,13.1-18.2c47.1,18.8,102.8,22.9,149.9,41.4L872.4,350z"/>
<path class="st16" d="M876.3,594.9c0,0-30.4,165.1-35.8,235.4c-5.4,70-13.7,226.2-13.7,226.2l48.9,8.9c0,0,92.7-399.6,101-425.8
	C985.1,613.4,876.3,594.9,876.3,594.9z"/>
<path class="st11" d="M954.4,665.3c4.8-22.9,8.3-38.7,9.5-43.2c8-26.2-87.6-27.4-87.6-27.4s-5.7,30.4-12.2,70.3h90.3V665.3z"/>
<path class="st15" d="M878.7,319.3c0,0-46.8,49.5-48.9,56c-2.4,6.6,17.3,31.3,17.3,31.3s-11.3,51.3-12.5,60.5
	c-1.2,9.5,25.3,95.1,25.3,95.1c3.3-68.2-3.9-97.1,0.9-163C862.3,379.2,878.7,319.3,878.7,319.3z"/>
<path class="st6" d="M902.5,353.6l7.5,283.1l-45.3-5.4c-4.2-0.6-7.2-3.9-7.2-8c0.6-31.3,3-157,1.5-196.7
	c-3-89.4,17.9-107.3,17.9-107.3c20.3-6,22.1,2.4,45,3.3C939.5,323.5,890.3,350.6,902.5,353.6z"/>
<path class="st14" d="M1036.3,743.3l-124-3.6c-4.8,0-8.6-3.9-8.6-8.6V350.6l31.3-26.8c81.1,3.9,73.6,47.7,67.9,132
	c-5.4,82.2,31.3,234.2,42,276.5C1046.5,738,1042.3,743.3,1036.3,743.3z"/>
<path class="st17" d="M902.8,300.8L868,316.9c-0.6,0.3-0.9,0.6-0.9,1.2l-8.6,33.7c-0.3,1.8,1.5,3,2.7,1.8l34-28.9
	c0.6-0.6,0.6-1.2,0.6-1.8l9.5-20.9C904.9,300.8,903.7,300.2,902.8,300.8z"/>
<path class="st10" d="M901.4,260.3c0,1.5,0.3,3.3,0,5.4c0,0.3,0,0.6,0,0.6c0.9,4.5-3.6,2.4-3.3,7.2c0.9,17.6-9.2,51.6-19.4,65.3
	c2.7,3.9,3.6,5.7,12.2,8.3c13.7,4.5,38.1-19.7,39.9-20.9c0,0,0-13.4,1.8-21.8c0.6-2.1,1.2-4.2,1.8-6.3c2.4-6.9,5.1-12.8,8-17.3
	c1.5-2.7,3.3-4.8,4.5-6.6L901.4,260.3z"/>
<path class="st18" d="M901.4,260.3c0,1.5,0.3,3.3,0,5.4c0,0.3,0,0.6,0,0.6c0.9,4.5-3.6,2.4-3.3,7.2c0.3,3.9-0.3,8.6-0.9,13.7
	c14.3,7.5,25.9,19.1,33.7,33.1c0.3-4.5,0.6-11,1.8-15.8c0.6-2.1,1.2-4.2,1.8-6.3c2.4-6.9,5.1-12.8,8-17.3c1.5-2.7,3.3-4.8,4.5-6.6
	L901.4,260.3z"/>
<path class="st10" d="M963.9,284.7c-34.6,7.5-58.7,21.5-90.3-30.1c-30.7-50.1-17.3-128.7,20-144.2c32.8-13.4,128.4,16.1,147.8,45.9
	C1063.2,190,1012.8,274,963.9,284.7z"/>
<path class="st18" d="M862.9,148.8c0,0.3-0.3,0.6-0.3,0.9c58.1,6,104.3-27.4,104.3-27.4c30.4,55.7,62.3,76.3,73.9,82.5
	c6.2-17,7.7-33.4,2.1-45c-0.6-1.2-1.2-2.4-1.8-3.3c-1.2-1.8-2.7-3.6-4.5-5.7c-8.9-9.2-24.4-18.2-42-25.6c-3.6-1.5-7.2-3-11-4.2
	c-3.6-1.2-7.4-2.7-11.3-3.9s-7.7-2.4-11.3-3.3c-26.8-7.2-53-9.2-67.3-3.6c-0.9,0.3-1.8,0.9-2.7,1.2
	C879,117.8,869.5,131.9,862.9,148.8z"/>
<path class="st10" d="M867.4,159.9c-0.6-5.4-14.9-11.3-25.3-7.7c-10.4,3.6-9.5,33.1-1.5,39.6c6.9,5.4,14.3,8.3,18.5,5.7
	C862.9,194.7,868.9,170,867.4,159.9z"/>
<path class="st10" d="M1032.8,211.1c3.6-4.2,18.5-0.9,25.3,7.7c6.8,8.9-10.7,32.8-21.2,33.7c-8.6,0.6-16.7-1.5-18.5-5.7
	C1016.7,242.7,1025.9,218.9,1032.8,211.1z"/>
<path class="st19" d="M951.1,192.1c-1.5,3.6-3.3,6.9-4.2,8.3c0,0-15.5-10.1-22.1,0.6c-7.5,12.5,5.4,23.2,5.4,23.2"/>
<path class="st19" d="M899.9,155.1c0,0,7.2-9.8,19.4-3.6"/>
<path class="st19" d="M1013.4,189.1c0,0-0.3-12.2-14-13.7"/>
<path class="st20" d="M911.8,175.7c-1.5,4.8-4.5,8.3-6.9,7.4c-2.4-0.6-3-5.4-1.5-10.1c1.5-4.8,4.5-8.3,6.9-7.4
	C912.7,166.4,913.3,170.9,911.8,175.7z"/>
<path class="st20" d="M998.8,202.8c-1.5,4.8-4.5,8.3-6.9,7.4c-2.4-0.6-3-5.4-1.5-10.1c1.5-4.8,4.5-8.3,6.9-7.4
	C999.7,193.5,1000.3,198,998.8,202.8z"/>
<path class="st18" d="M852.5,168.2c-0.3,6-2.4,10.7-5.1,10.7s-0.3-5.1-0.3-11c0.3-6-1.5-10.7,1.2-10.7
	C850.7,157.5,852.8,162.3,852.5,168.2z"/>
<path class="st18" d="M1039.3,226.3c-3.3,5.1-4.2,10.4-1.8,11.6c2.1,1.5,3.3-3.9,6.5-8.9c3.3-5.1,7.5-8,5.1-9.5
	C1046.8,218.3,1042.6,221.3,1039.3,226.3z"/>
<path class="st21" d="M906.7,207.5c-0.9,3-8.9,3-18.2,0c-9.2-3-15.8-7.5-14.9-10.4s8.9-3,18.2,0
	C901.1,200.1,907.6,204.9,906.7,207.5z"/>
<path class="st21" d="M1009.5,239.4c-0.9,3-8.9,3-18.2,0c-9.2-3-15.8-7.5-14.9-10.4s8.9-3,18.2,0
	C1003.6,232,1010.4,236.8,1009.5,239.4z"/>
<path class="st22" d="M949.9,250.5c-1.2,2.7-3.6,6.9-7.7,9.8c-3.3,2.4-7.7,3.6-13.4,2.4c-6.9-1.5-11-4.5-13.4-7.7
	c-3.6-4.5-4.2-9.5-4.2-12.5c0-1.2,1.2-2.1,2.4-2.1l35.5,7.2C949.6,247.8,950.2,249.3,949.9,250.5z"/>
<path class="st12" d="M968.4,117.8c0,0-46.8,34.3-105.8,27.4c0,0-5.4-20.3,18.2-45.9s95.4-1.2,123.7,11
	c28.3,12.2,71.5,34.9,42.6,92.4C1047.1,202.5,1006.5,187.9,968.4,117.8z"/>
<path class="st15" d="M950.2,328.2c0,0,5.4,49.8,6,53.6s-26.8,19.4-26.8,19.4l8.9,77.5c0,0-32.5,74.5-32.8,81.9
	c-0.3,13.4-5.4-213.7-5.4-213.7L950.2,328.2z"/>
<path class="st17" d="M932,307.1c0,0,11.6,12.2,17.9,18.2c5.1,4.8-36.4,22.9-52.7,30.1c-3,1.2-6.6-0.9-6.6-4.5l0.3-27.1
	c0-3.6,2.4-6.6,6-7.4L932,307.1z"/>
<path class="st14" d="M998.5,370.9c0,0,0,22.9-25,50.1c-38.1,41.1-109.7,91.2-129.6,74.2c-49.5-41.7,62.9-93,76.6-110.3
	C981.5,308.9,998.5,370.9,998.5,370.9z"/>
<path class="st10" d="M678.4,511.8c5.4,0.9,8.3,2.7,3.6,4.5c-3.3,1.2-12.8,5.7-18.2,8.3l48.6,33.4c7.5-2.1,22.9-17.9,22.9-17.9
	l-5.4-28.6c0,0-17-4.5-21.8-6c-4.8-1.5-24.4-2.1-31.6-6.9c-6.9-4.5-13.4-3.9-13.1,0C664.1,502.9,672.8,510.9,678.4,511.8z"/>
<path class="st14" d="M877.8,442.4c0,0,16.7,39.6,2.4,50.1c-25.9,19.4-140.7,53-140.7,53c-3.9-3.6-10.7-10.4-14.9-21.8
	c-3.6-9.2-3.9-17.3-3.6-22.3c46.5-20.3,93.3-40.2,139.8-60.5L877.8,442.4z"/>
<path class="st10" d="M592.9,220.1c3.3,4.5,3.9,7.7-0.6,6c-3.3-1.2-13.1-5.1-18.8-7.2l10.7,57.8c6.9,3.9,28.9,3.6,28.9,3.6
	l16.4-23.8c0,0-8.9-15.2-11.3-19.7c-2.4-4.5-15.8-18.8-17.6-27.1c-1.8-8-6.6-12.2-9.2-9.2C589,203.7,589.6,215.6,592.9,220.1z"/>
<path class="st14" d="M783,312.4c0,0-16.4,39.6-33.7,37c-32.2-4.8-137.1-62.3-137.1-62.3c-0.3-5.1,0-14.9,4.8-25.9
	c4.2-8.9,9.5-14.9,13.1-18.2c47.1,18.8,94.5,37.5,141.5,56L783,312.4z"/>
<path class="st10" d="M593.5,279.1c0,0-27.7-3.9-33.7-11c-5.7-7.2-0.3-9.5-0.3-9.5s-12.5-6.9-14.3-11c-3.6-8.3,0-11,0-11
	s-4.8-3-5.7-11.3c-0.9-8.3,1.5-10.7,4.8-9.8c3.3,1.2,8,10.4,22.9,16.4c0,0-12.8-10.1-15.5-19.1c-2.7-8.9,2.1-11.6,6.3-8.9
	c4.2,2.7-0.3,5.4,31.6,20.9l14,48.3L593.5,279.1z"/>
<path class="st18" d="M545.5,236.5c0,0-3.6,2.7,0,11c1.8,4.2,14.3,11,14.3,11s-5.7,2.4,0.3,9.5c0.3,0.3,0.9,0.9,1.2,1.2
	c6.3-16.7,11-34.3,14.3-52.1c-16.1-9.2-14-11.3-17.3-13.4c-4.2-2.7-8.9,0-6.3,8.9s15.5,19.1,15.5,19.1c-14.9-6-20-15.5-22.9-16.4
	c-3.3-1.2-5.7,1.5-4.8,9.8C540.8,233.5,545.5,236.5,545.5,236.5z"/>
<path class="st15" d="M941.9,618.5l36.7,63.5l8.3-3.9l-37-63.5L941.9,618.5z"/>
<path class="st10" d="M720.5,553.2c0,0-22.6,17-31.6,15.8c-8.9-0.9-6.9-6.6-6.9-6.6s-13.7,3.9-17.9,2.4c-8.6-3.3-7.7-7.7-7.7-7.7
	s-5.7,1.2-11.9-4.2c-6.6-5.1-6.6-8.6-3.6-10.4c3-1.5,13.1,1.8,28-4.8c0,0-16.1,2.1-24.4-2.4c-8.3-4.5-6.6-9.8-2.1-10.7
	c4.8-1.2,3.6,3.9,37-7.4l44.1,24.1L720.5,553.2z"/>
<path class="st23" d="M646.3,985.9c0,0,13.1-2.1-89.4,64.1c-102.5,66.5-138.6,67.7-202.3,64.4s-63.8-3.3-63.8-3.3
	s21.2-93.9,112.3-117.7C494.3,969.8,646.3,985.9,646.3,985.9z"/>
<path class="st6" d="M578.3,1002.9c-52.4-5.7-94.5,30.7-140.4,49.2c-38.7,15.8-85.8,14.3-119.2,41.7c-3,2.4,1.2,6.5,4.2,4.2
	c32.5-26.5,79.3-25,116.8-40.2c45.3-18.2,86.7-54.5,138.6-48.9C582.2,1009.2,582.2,1003.2,578.3,1002.9z"/>
<path class="st6" d="M351.2,1047.9c-3.9,11.6-8.6,22.6-15.8,32.5c-2.4,3,3,6,5.1,3c7.5-10.1,12.5-22.1,16.4-34
	C358.4,1045.8,352.4,1044.3,351.2,1047.9z"/>
<path class="st6" d="M408.2,1066.4c19.7,9.5,40.5,18.2,62.3,21.2c3.9,0.6,5.4-5.1,1.5-5.7c-21.2-3-41.7-11.3-60.8-20.6
	C407.6,1059.5,404.6,1064.9,408.2,1066.4z"/>
<path class="st6" d="M415.6,1022c-9.8,14.9-22.4,28-32.2,42.9c-2.1,3.3,3,6.3,5.1,3c9.8-14.9,22.4-27.7,32.2-42.9
	C422.8,1021.7,417.7,1018.7,415.6,1022z"/>
<path class="st6" d="M475.5,1038.7c17,2.4,32.5,11.3,49.5,14c3.9,0.6,5.4-5.1,1.5-5.7c-17-2.7-32.2-11.6-49.5-14
	C473.4,1032.1,471.6,1038.1,475.5,1038.7z"/>
<path class="st6" d="M494,999.9c-3.6,12.2-9.8,24.1-15.8,35.5c-1.8,3.3,3.3,6.3,5.1,3c6.3-11.6,12.5-24.1,16.4-37
	C500.8,997.8,495.2,996.4,494,999.9z"/>
<path class="st0" d="M269.3,1110.5c0,0,97.4,15.2,85.8-11.3c-11.6-26.5-29.8-27.7-29.8-27.7s82.8-5.7,64.1-27.4
	c-18.8-21.8-34.6-24.4-34.6-24.4s85.8-11.3,56.9-32.8c-28.9-21.5-28.9-21.5-28.9-21.5s87.3-19.4,65-31.6
	c-22.3-12.2-32.8-11.9-32.8-11.9s67.3-57.5,38.1-64.7c-29.5-7.2-47.7-8.3-47.7-8.3s66.2-39.3,40.8-45.9c-25.3-6.6-38.7-0.6-38.7-0.6
	s56.9-67.6,20-65.9c-37,1.5-37,46.5-37,46.5s-46.8-47.1-41.1-9.2c5.7,37.8,14,59.6,14,59.6s-38.1-49.8-40.5-13.4
	c-2.4,36.4,8,46.5,8,46.5s-37-57.5-39-11c-2.1,46.5,6.9,64.7,6.9,64.7s-30.1-72.7-36.7-12.5c-6.6,60.2,3.3,74.2,3.3,74.2
	s-31.3-54.5-39.6-7.2c-8.3,47.7,19.1,111.8,19.1,111.8L269.3,1110.5z"/>
<path class="st6" d="M273.2,1100.7c23.8-43.5,36.1-91.5,54.5-137.1c20.9-51.6,48.9-101.3,74.5-150.8c1.8-3.3-3.3-6.6-5.1-3
	c-24.7,47.4-50.7,95.4-71.8,144.5c-20.6,47.4-32.2,98.3-57.2,143.6C266,1100.9,271.1,1103.9,273.2,1100.7z"/>
<path class="st6" d="M341.4,928.7c25.9-14,50.1-30.7,75.4-45.6c3.3-2.1,0.3-7.2-3-5.1c-25.3,14.9-49.8,31.6-75.4,45.6
	C335.2,925.4,338.1,930.8,341.4,928.7z"/>
<path class="st6" d="M339.9,856.9c7.4,7.7,9.2,18.8,13.1,28.6c1.5,3.6,7.2,2.1,5.7-1.5c-4.2-10.7-6.6-22.3-14.6-31
	C341.4,849.7,337.2,853.9,339.9,856.9z"/>
<path class="st6" d="M309.8,1002.3c16.4-9.8,34.9-15.5,53-21.5c3.6-1.2,2.1-6.9-1.5-5.7c-18.5,6.3-37.5,11.9-54.2,22.1
	C303.6,999,306.5,1004.4,309.8,1002.3z"/>
<path class="st23" d="M276.1,1096.2c0,0,64.7-168.7,4.8-158.2c-42,7.5-35.5,0.9-35.5,0.9s30.1-154.1-13.7-142.7
	c-43.8,11.3-36.7,22.9-36.7,22.9s10.7-102.8-20.9-99.2s-29.5,27.7-29.5,27.7s-26.8-87.9-61.4-92.1C44,650.7,54.7,729.9,64,741.6
	c9.2,11.9,26.2,40.5,12.5,61.4s-36.7,29.8-5.4,48.9c31.3,19.1,49.2,36.4,49.2,36.4s-87.6,0-28.9,51.3c59,51.9,77.5,49.8,77.5,49.8
	s-82.5-3.9-29.2,48.3c53.3,51.8,119.5,73.6,119.5,73.6L276.1,1096.2z"/>
<path class="st6" d="M87.8,706.7c-4.5,74.8,50.1,133.8,81.4,196.7c27.4,54.8,28,125.8,71.5,172.5c2.7,2.7,6.9-1.5,4.2-4.2
	c-41.7-44.7-43.5-113.8-68.5-167.5c-30.1-64.1-87-121.9-82.5-197.6C94.1,703.1,88.1,703.1,87.8,706.7z"/>
<path class="st6" d="M225.5,1046.4c8.6-22.7,17.3-45,27.4-67.1c1.5-3.6-3.6-6.6-5.1-3c-10.4,22.4-19.4,45.3-28,68.2
	C218.6,1048.5,224.3,1050,225.5,1046.4z"/>
<path class="st6" d="M170.7,1032.1c17.3,4.8,34,10.7,48.9,20.6c3.3,2.1,6.3-3,3-5.1c-15.5-10.1-32.8-16.4-50.4-21.2
	C168.6,1025.3,166.8,1031.2,170.7,1032.1z"/>
<path class="st6" d="M191.8,948.4c11.9-29.2,22.9-60.5,25.3-92.1c0.3-3.9-5.7-3.9-6,0c-2.4,31-13.4,61.7-25,90.3
	C184.7,950.2,190.3,951.7,191.8,948.4z"/>
<path class="st6" d="M128,940.9c22.6,13.1,42.3,30.1,65,43.2c3.3,1.8,6.3-3.3,3-5.1c-22.6-13.1-42.3-30.1-65-43.2
	C127.7,933.8,124.8,939.1,128,940.9z"/>
<path class="st6" d="M145.6,852.7c2.4-25,13.7-48,16.4-73c0.3-3.9-5.7-3.9-6,0c-2.7,25-14,48-16.4,73
	C139.1,856.6,145,856.6,145.6,852.7z"/>
<path class="st6" d="M89.3,828.6c18.2,4.5,36.4,12.2,53.3,20.3c3.6,1.5,6.6-3.6,3-5.1c-17.6-8-35.8-16.1-54.5-20.9
	C87.2,822,85.4,827.7,89.3,828.6z"/>
<path class="st0" d="M0.2,1008.9c0,0-8-5.1,78.4,8c86.4,13.1,106.4,29.5,138.9,61.7c32.8,32.2,32.8,32.2,32.8,32.2
	s-56,40.2-116.2,9.8C73.8,1089.6,0.2,1008.9,0.2,1008.9z"/>
<path class="st6" d="M44,1032.7c22.9,24.7,57.2,28.6,87.9,37.2c32.5,8.9,60.2,35.8,94.8,37.6c3.9,0.3,3.9-5.7,0-6
	c-32.5-1.8-58.7-27.4-89.4-36.4c-31-8.9-66.2-11.9-89.4-36.6C45.5,1025.6,41.3,1029.7,44,1032.7z"/>
<path class="st6" d="M187.9,1116.7c7.4-4.5,15.2-8,23.8-9.8c3.9-0.9,2.1-6.6-1.5-5.7c-8.9,2.1-17.3,6-25.3,10.4
	C181.7,1113.5,184.7,1118.5,187.9,1116.7z"/>
<path class="st6" d="M166.8,1078.9c-6.3-14.6-13.4-29.5-23.8-41.7c-2.4-3-6.6,1.2-4.2,4.2c9.5,11.3,16.7,25.3,22.3,39
	C162.6,1084,168.3,1082.5,166.8,1078.9z"/>
<path class="st6" d="M141.2,1100.1c12.2-3.3,25-4.5,37.5-7.8c3.6-0.9,2.1-6.9-1.5-5.7c-12.2,3.3-25,4.5-37.5,7.7
	C135.8,1095.3,137.3,1100.9,141.2,1100.1z"/>
<path class="st6" d="M117,1061c-8-9.5-11.9-21.5-20-31c-2.4-3-6.6,1.2-4.2,4.2c7.7,9.5,11.9,21.5,20,31
	C115.2,1068.2,119.4,1063.7,117,1061z"/>
<path class="st6" d="M88.7,1074.4c7.7-4.8,16.7-8.4,25-11.3c3.6-1.2,2.1-7.2-1.5-5.7c-8.9,3.3-18.5,7.2-26.5,11.9
	C82.4,1071.4,85.4,1076.5,88.7,1074.4z"/>
<path class="st8" d="M144.4,307.7c0,6.6-5.4,11.9-11.9,11.9c-6.6,0-11.9-5.4-11.9-11.9v-87.9c0-6.6,5.4-11.9,11.9-11.9
	c6.6,0,11.9,5.4,11.9,11.9V307.7z"/>
<path class="st8" d="M176.3,251.9c6.6,0,11.9,5.4,11.9,11.9s-5.4,11.9-11.9,11.9H88.4c-6.6,0-11.9-5.4-11.9-11.9s5.4-11.9,11.9-11.9
	H176.3z"/>
<path class="st8" d="M1176.7,1081c0,6.6-5.4,11.9-11.9,11.9c-6.6,0-11.9-5.4-11.9-11.9v-87.9c0-6.6,5.4-11.9,11.9-11.9
	c6.6,0,11.9,5.4,11.9,11.9V1081z"/>
<path class="st8" d="M1208.9,1025.3c6.5,0,11.9,5.4,11.9,11.9c0,6.5-5.4,11.9-11.9,11.9H1121c-6.6,0-11.9-5.4-11.9-11.9
	c0-6.6,5.4-11.9,11.9-11.9H1208.9z"/>
</svg>
