<?xml version="1.0" encoding="utf-8"?>
<!-- Generator: Adobe Illustrator 24.1.0, SVG Export Plug-In . SVG Version: 6.00 Build 0)  -->
<svg version="1.1" id="Capa_1" xmlns="http://www.w3.org/2000/svg" xmlns:xlink="http://www.w3.org/1999/xlink" x="0px" y="0px"
	 viewBox="0 0 2551.2 850.4" style="enable-background:new 0 0 2551.2 850.4;" xml:space="preserve">
<style type="text/css">
	.st0{fill:#FFFFFF;stroke:#E31513;stroke-width:10;stroke-miterlimit:10;}
	.st1{fill:#FFFFFF;stroke:#E7E6E6;stroke-width:10;stroke-miterlimit:10;}
	.st2{fill:#FFFFFF;stroke:#00A18A;stroke-width:10;stroke-miterlimit:10;}
	.st3{fill:#FFFFFF;stroke:#292523;stroke-width:10;stroke-miterlimit:10;}
</style>
<g id="molecule">
	<circle class="st0" cx="1236.3" cy="303.6" r="76"/>
	
		<ellipse transform="matrix(0.7071 -0.7071 0.7071 0.7071 -14.3798 1212.2954)" class="st1" cx="1456.2" cy="623.5" rx="60" ry="60"/>
	<path class="st2" d="M1371.1,605.9l40.2,4.9c6.2,0.8,10.7,6.5,10,12.7v0c-0.8,6.2-6.5,10.7-12.7,10l-40.2-4.9
		c-6.2-0.8-10.7-6.5-10-12.7l0,0C1359.1,609.7,1364.8,605.2,1371.1,605.9z"/>
	<circle class="st1" cx="1095.5" cy="718.3" r="60"/>
	<path class="st2" d="M1230.7,656.9l-86.4,47c-5.5,3-12.5,0.9-15.5-4.6l0,0c-3-5.5-0.9-12.5,4.6-15.5l86.4-47
		c5.5-3,12.5-0.9,15.5,4.6l0,0C1238.3,646.9,1236.2,653.9,1230.7,656.9z"/>
	<circle class="st3" cx="1298.6" cy="616.7" r="85"/>
	<path class="st2" d="M1341.5,661.7l34,42.6c3.9,4.9,3.1,12.1-1.8,16.1l0,0c-4.9,3.9-12.1,3.1-16.1-1.8l-34-42.6
		c-3.9-4.9-3.1-12.1,1.8-16.1l0,0C1330.3,656,1337.6,656.8,1341.5,661.7z"/>
	
		<ellipse transform="matrix(0.7071 -0.7071 0.7071 0.7071 -121.2154 1198.5006)" class="st1" cx="1386.1" cy="745.6" rx="60" ry="60"/>
	
		<ellipse transform="matrix(0.7071 -0.7071 0.7071 0.7071 329.5853 1006.8345)" class="st1" cx="1380.1" cy="105.6" rx="60" ry="60"/>
	<path class="st2" d="M1266.1,372.1l29.9,162.1c1.1,6.2-3,12.2-9.2,13.3l0,0c-6.2,1.1-12.2-3-13.3-9.2l-29.9-162.1
		c-1.1-6.2,3-12.2,9.2-13.3l0,0C1258.9,361.8,1264.9,365.9,1266.1,372.1z"/>
	<path class="st2" d="M1356,159.4l-67.1,94.3c-3.6,5.1-10.8,6.3-16,2.7l0,0c-5.1-3.6-6.3-10.8-2.7-16l67.1-94.3
		c3.6-5.1,10.8-6.3,16-2.7l0,0C1358.4,147.1,1359.6,154.2,1356,159.4z"/>
</g>
</svg>
