<?xml version="1.0" encoding="utf-8"?>
<!-- Generator: Adobe Illustrator 24.1.0, SVG Export Plug-In . SVG Version: 6.00 Build 0)  -->
<svg version="1.2" baseProfile="tiny" id="Capa_1" xmlns="http://www.w3.org/2000/svg" xmlns:xlink="http://www.w3.org/1999/xlink"
	 x="0px" y="0px" viewBox="0 0 421 421" xml:space="preserve">
<path fill="#00AEB3" fill-opacity="0.1" d="M417.3,76.3c-4-4-10.6-4-14.7,0c-1.2,1.2-3.1,0.3-5.1-1.7
	c-11.9-11.8-51.3-50.9-52.7-52.7c-1.7-2.1-1.4-3.6-0.8-4.2c4-4,4.1-10.6,0-14.6c-4-4.1-10.6-4-14.7,0
	c-30.7,30.9-38.8,71.2-43.2,110.5c-0.2,1.4-0.7,2-1.9,2.1c-45.2,4.5-92.9,7.6-127,41.2c-33.7,34-36.7,81.8-41.2,127
	c-0.1,1-1.2,1.9-2.5,2c-39.1,4.4-79.2,12.5-110.1,43.2c-4,4-4,10.6,0,14.7c4,4,10.6,4,14.7,0c1-1,1.9-1.9,2.9-2.8
	c1.5-1.4,2.5-1.6,4.6,0.5c10.7,10.7,53.1,53,54.1,54.1c1.1,1.2,0.6,3,0,3.7c-1,1.1-2,2.1-3,3.1c-4,4-4,10.6,0,14.7
	c4,4,10.6,4,14.7,0c30.7-30.9,38.7-71,43.2-110.3c0.2-1.6,0.5-2.2,2-2.4c45.2-4.5,92.9-7.6,127-41.2c33.7-34,36.7-81.8,41.2-127
	c0.1-1.2,0.7-1.8,2.2-2c39.3-4.4,79.5-12.5,110.5-43.2C421.4,86.9,421.4,80.3,417.3,76.3z M102.1,361.2c-2.1,5.6-4.4,11.1-7.2,16.3
	c-0.4,0.7-1.8,1.4-3.1,0.1c-9.2-9.2-47-47-48.7-48.7c-1.9-1.9-0.6-3.3,0.3-3.7c5.2-2.7,10.7-5.1,16.3-7.1c0.9-0.3,3.1-0.5,4.4,0.8
	c1,1.1,28.8,28.8,36.9,36.9C103.2,358,102.9,358.9,102.1,361.2z M113.5,308.7c-0.9,7.7-2.1,15.3-3.5,22.7c-0.2,1-0.9,2.8-2.3,1.2
	c-1.1-1.3-14.5-14.6-19.7-19.7c-1.2-1.2,0.1-2.4,1.2-2.6c7.3-1.4,14.8-2.5,22.4-3.4C112.7,306.8,113.6,307.3,113.5,308.7z
	 M146.5,282.5c-2.4,0.2-4.8,0.5-7.2,0.7c-1.9,0.2-2.3-1-2.2-2.4c0.2-2.4,0.4-4.7,0.7-7c0.1-0.9,0.6-2.3,2.3-0.6
	c1.1,1.1,4.5,4.5,6.8,6.8C148.2,281.3,147.4,282.4,146.5,282.5z M199.1,274.4c-6.7,1.7-13.7,3.1-21,4.3c-0.8,0.1-2.4,0.1-4-1.4
	c-1.3-1.3-23.7-23.7-30.7-30.7c-2.1-2.1-1.9-3.4-1.6-5.4c1.1-6.6,2.4-13,3.9-19.2c0.6-2.3,1.9-1.9,3.3-0.7c0,0,49,49.1,50.4,50.4
	C200.8,272.8,200,274.2,199.1,274.4z M240.7,255.6c-4.5,3.4-9.3,6.4-14.4,9c-1.9,1-3.1,0.8-4.8-0.9c-11.4-11.4-64.2-64.2-65.3-65.3
	c-1.2-1.2-1-3.2-0.7-3.9c2.6-5.3,5.7-10.2,9.2-14.9c0.6-0.8,2.7-1,3.3-0.5c0,0,71,70.9,72.3,72.3C241.7,253,241.3,255.1,240.7,255.6
	z M267,221.7c-2.3,5.1-5,9.9-8,14.4c-0.6,0.9-2.6,1.8-4.4-0.1c-1.9-1.9-71.7-71.7-71.7-71.7c-0.6-0.6-0.4-1.8,0.6-2.5
	c4.7-3.3,9.8-6.1,15.1-8.5c1-0.4,3-1.2,5.5,1.3c2.2,2.1,49.8,49.8,61.5,61.5C267.4,217.8,267.5,220.7,267,221.7z M279.9,172.2
	c-1,7.3-2.3,14.5-3.8,21.3c-0.2,0.9-1,2.1-2.5,0.7c-1.5-1.4-45.8-45.7-47.4-47.4c-1.6-1.6-0.2-2.4,0.6-2.5
	c6.5-1.5,13.2-2.6,20.1-3.6c1.2-0.2,3-1,5.3,1.2c1.9,1.9,20.1,20.1,26.1,26.1C279.6,169.1,280.1,171.4,279.9,172.2z M283.3,142.9
	l-5.8-5.8c2.1-0.2,4.3-0.4,6.4-0.6C283.7,138.6,283.5,140.8,283.3,142.9z M337.9,108.3c-7.3,1.6-14.8,2.7-22.4,3.8
	c-7.7,1.1-8.3,0.1-7.3-7.2c1-7.6,2.2-15,3.7-22.2c0.2-0.8,1.3-1.7,2.5-0.5c5.9,5.9,23.3,23.2,24,24
	C339.2,107.1,338.6,108.2,337.9,108.3z M380.2,93.2c-4.2,2.4-8.6,4.5-13.2,6.3c-1.3,0.5-4.1,0.9-6.4-1.1c-2-1.6-28.2-28.1-37.8-37.8
	c-2.2-2.2-2.5-6.3-1.9-7.7c1.9-4.6,4-9,6.5-13.3c0.7-1.2,3.2-2.3,5.1-0.4c10.7,10.7,45.8,45.6,48.2,48.2
	C383.4,90.5,381.5,92.5,380.2,93.2z"/>
<path fill="#38353B" fill-opacity="0.1" d="M114.6,298.5c0.2-1.7,0.3-3.3,0.5-5c0.2-2-1.4-1.9-2.2-1.8
	C74.6,296.1,36.8,304,7.5,333.1c-1.8,1.8-1.8,4.7,0,6.5s4.7,1.8,6.4,0c25-25.3,59.2-33.8,98.3-38.5
	C114,300.8,114.5,299.7,114.6,298.5z"/>
<path fill="#38353B" fill-opacity="0.1" d="M340,7.1c-1.8-1.8-4.7-1.8-6.5,0c-34.6,34.8-39.2,81.8-43.7,127.5
	c-4.1,44.1-8.2,89.6-36.9,117.8c-26.7,27.1-69,32.4-111,36.3c-0.3,3.1-0.6,6.2-0.9,9.2l1.6-0.2c42.2-4.1,85.9-8.4,116.7-38.9
	c30.6-30.9,34.8-74.6,38.9-116.8l0.7-6.6c4.6-49,10.8-92,41-122C341.8,11.8,341.8,8.9,340,7.1z"/>
<path fill="#38353B" fill-opacity="0.1" d="M118.4,314.9c-5,36.2-13.9,67.9-37.6,91.4c-1.8,1.8-1.8,4.7,0,6.5s4.7,1.8,6.5,0
	c27.4-27.6,36-62.8,40.6-99l3.2-29.8c4-43.7,8.4-88.6,36.8-116.6c27.7-28.1,71.8-32.7,115.1-36.7c0.5,0,1.6-1.3,1.7-1.8
	c0.2-2,0.4-3.9,0.6-5.9c0.1-1.3-0.5-1.8-1.4-1.5l-5.7,0.6c-42.2,4.1-85.8,8.4-116.7,38.9c-30.5,30.9-34.8,74.5-38.9,116.7
	L118.4,314.9z"/>
<path fill="#00AEB3" fill-opacity="0.1" d="M272,209.5c0.4-1.3,0.8-2.6,1.2-3.9c0.6-1.9,0.4-3.4-1.9-5.6c-9.5-9.5-41-41.1-43-43
	c-2.3-2.2-4.6-2-5.6-1.7c-1.4,0.4-2.7,0.8-4,1.2c-1.1,0.4-2.8,1.8-0.6,3.9c1.9,1.8,38.3,38.2,49.5,49.5
	C269.7,211.9,271.6,210.7,272,209.5z"/>
<path fill="#00AEB3" fill-opacity="0.1" d="M282.4,161.2c0.4-2.4,0.7-4.8,1.1-7.2c0.1-0.8-0.1-2.9-1.1-3.9s-3.4-3.4-3.4-3.4
	c-1-0.9-1.5-1-3-0.8c-2.7,0.3-5.4,0.6-8.1,0.9c-1.4,0.2-1.1,1.1-0.6,1.8c0,0,12.4,12.4,13.2,13.2S282.2,161.9,282.4,161.2z"/>
<path fill="#00AEB3" fill-opacity="0.1" d="M251.5,248.7c0.5-0.5,1-1,1.4-1.6c2.3-2.6,0.8-3.6-0.7-5.3c0,0-62.9-63.1-64.9-64.9
	c-2-1.8-3.3-1.5-3.8-1.1c-1.3,1.1-2.5,2.3-3.7,3.5c-0.6,0.6-1.4,2,0.6,4.2s65.3,65.3,65.3,65.3C247,250,249.5,250.8,251.5,248.7z"/>
<path fill="#00AEB3" fill-opacity="0.1" d="M161.1,282.3c1.8-0.2,3.6-0.4,5.4-0.6c1.1-0.1,1.9-1.9-0.2-4
	c-4.7-4.7-12.7-12.7-14.8-14.8c-3.2-3.1-3.6-0.9-3.7,0.2c-0.2,1.7-0.4,3.4-0.6,5.1c-0.1,1.2-0.2,3.2,1.7,5.6c1.3,1.6,4.8,5,7,7.1
	C157,282,159.3,282.5,161.1,282.3z"/>
<path fill="#00AEB3" fill-opacity="0.1" d="M211.4,271.9c1.5-0.5,2.9-1,4.3-1.5c1-0.4,2.7-1.6,0.1-4.2c-2.6-2.6-52.8-52.8-52.8-52.8
	c-1.3-1.5-3.5-1.9-4.2-0.1c-0.5,1.4-1.1,2.9-1.6,4.4c-0.3,0.9-0.3,2.9,1.3,4.8c1.4,1.6,36.4,36.5,47.2,47.2
	C207.6,271.6,210.5,272.2,211.4,271.9z"/>
<path fill="#00AEB3" fill-opacity="0.1" d="M396.3,81.4l-48.9-48.9c-2.1,2.5-4,5-5.9,7.7l47.1,47.1
	C391.1,85.5,393.7,83.5,396.3,81.4z"/>
<path fill="#00AEB3" fill-opacity="0.1" d="M356.8,102.8L326,72c-1.1,3.4-2.1,6.9-3,10.5l23.4,23.4
	C349.9,104.9,353.4,103.9,356.8,102.8z"/>
<path fill="#00AEB3" fill-opacity="0.1" d="M105.8,348.3c0.4-1.5,0.9-3,1.3-4.6c0.2-0.9,0.8-2.4-1.4-4.8
	c-1.6-1.8-10.7-10.7-15.1-15.2c-1.9-1.9-3.2-2.3-4.9-1.9c-2,0.5-4,1-5.9,1.6c-1.8,0.5-1.5,1.6-0.2,2.8c5.8,5.7,21.1,20.9,22.8,22.8
	C104.4,351.4,105.5,349.3,105.8,348.3z"/>
<path fill="#00AEB3" fill-opacity="0.1" d="M86.8,390.5c0.8-1.1,1.5-2.2,2.2-3.4c0.5-0.8,0.8-3.3-0.6-4.7
	c-8.5-8.6-39.7-39.8-41.5-41.5c-2.1-1.9-3.8-1.7-4.5-1.2c-1.2,0.8-2.5,1.7-3.7,2.6c-0.8,0.6-1.9,1.9-0.1,3.8
	c1.5,1.7,35.4,35.5,44.4,44.4C84.4,392,86.3,391.3,86.8,390.5z"/>
<path fill="#38353B" fill-opacity="0.1" d="M413.2,80.4c-1.8-1.8-4.7-1.8-6.4,0c-22.7,22.8-52.8,32-87.2,37
	c-3.5,0.5-4.3,1.1-4.6,3.6c-0.1,0.9-0.2,1.8-0.3,2.7c-0.3,2.5,0.8,3.6,3.8,3.2c34.6-4.7,68.2-13.6,94.8-40
	C415,85.1,415,82.2,413.2,80.4z"/>
</svg>
