<?xml version="1.0" encoding="utf-8"?>
<!-- Generator: Adobe Illustrator 24.1.0, SVG Export Plug-In . SVG Version: 6.00 Build 0)  -->
<svg version="1.1" id="Eco-friendly_fuel_substitute"
	 xmlns="http://www.w3.org/2000/svg" xmlns:xlink="http://www.w3.org/1999/xlink" x="0px" y="0px" viewBox="0 0 5100 3281.4"
	 style="enable-background:new 0 0 5100 3281.4;" xml:space="preserve">
<style type="text/css">
	.st0{fill:url(#SVGID_1_);}
	.st1{fill:#FFF6C9;}
	.st2{fill:#41807A;}
	.st3{fill:#4A918B;}
	.st4{fill:#386E69;}
	.st5{fill:#AFBCC6;}
	.st6{fill:#97B1C4;}
	.st7{fill:#EA7A19;}
	.st8{fill:#F58814;}
	.st9{fill:#FBB669;}
	.st10{fill:#FBC18F;}
	.st11{fill:#FFFFFF;}
	.st12{fill:#EDE3AE;}
	.st13{fill:#E2EDF7;}
	.st14{fill:#5FAFA2;}
	.st15{fill:#F59953;}
	.st16{fill:#71B5AC;}
	.st17{fill:#BEE1F4;}
	.st18{fill:#80AFCE;}
	.st19{fill:#629AB7;}
	.st20{fill:#A3C8E5;}
	.st21{fill:#6CA4C1;}
	.st22{fill:#2A4449;}
	.st23{fill:#D9CD92;}
	.st24{fill:#F59D25;}
	.st25{fill:#F18D1E;}
	.st26{fill:#F8BC69;}
	.st27{fill:#FBD3A6;}
</style>
<g id="Background_1_">
	<linearGradient id="SVGID_1_" gradientUnits="userSpaceOnUse" x1="2553.5603" y1="1070.6891" x2="2567.0173" y2="3869.3264">
		<stop  offset="0" style="stop-color:#FFF6C9"/>
		<stop  offset="1" style="stop-color:#A9C97F"/>
	</linearGradient>
	<path class="st0" d="M193.2,3035.3c0,0,200.9-1857.6,2460-1857.6s2279.6,1857.6,2279.6,1857.6H193.2z"/>
	<ellipse class="st1" cx="2563" cy="3035.3" rx="2369.8" ry="122.9"/>
</g>
<g id="Bush">
	<path class="st2" d="M4670.2,2155.8c-6.6-78.9-70-156.5-150.7-167.3c-23.1-3.1-46,0.4-67,8.8c1-2.9,1.9-5.9,2.7-8.8
		c6.7-24.6,9.5-54.6-1.4-78.5c-9.3-20.3-30-33.5-51.6-37.2c-25.9-4.4-51.8,5.1-72.4,20.4c-4.3,3.2-8.4,6.7-12.2,10.4
		c2.8-24.6,2-49.5-3.3-74c-10.6-48.5-41.8-92.5-86.3-115.3c-15.2-7.8-30.4-12.2-45.2-13.8c-40.4-4.4-78.7,12.2-111,39
		c-35.5,29.5-63.7,71.4-79.1,111.3c-16.2,41.9-20.2,89.2-6.4,131.3c-11-3-22.4-3.9-33.7-1.9c-34.4,6.3-43.5,37.4-38.4,67
		c-41-11.4-86.3-7.8-123.7,13.4c-67.7,38.2-105.5,126.1-75.3,200c8.4,20.5,22.3,38.8,41.1,50.8c4.4,2.8,9.3,5.4,14.4,7.6
		c13.1,5.7,28,8.7,41.7,6.3c13.9,3.3,21.4,19.3,23.6,33c3.1,19.5-4.1,39.2-3.8,58.8c0.5,40,35.5,57.4,67.7,71.3
		c39.1,16.9,79.8,31.1,121.4,41.9c44.7,11.7,90.4,19.5,136.1,22.7c22.4,1.6,46.2,0.9,66.3-10.4c8.4-4.7,15.8-11.3,21.1-19.1
		c18.1,17.1,40.3,30.2,63.4,38.1c3.7,1.3,7.5,2.4,11.4,3.3c0.4,0.8,0.8,1.6,1.2,2.4c24.7,46.6,83.9,70.9,135,61.1
		c14-2.7,27.4-7.7,39.8-14.7c42-23.4,72.1-68.5,76-116.5c1.9-22.8-2.4-46.7-14.5-65.6c15.7-14.5,27.2-33.5,31.6-55.7
		c3.9-20.2,2.3-41-5-59.7c22.9-12.3,42.8-31.7,56.9-51.9C4662.4,2232.7,4673.5,2194.1,4670.2,2155.8z"/>
	<path class="st3" d="M4030,1987.3c-15-97.4-1.1-198,41.6-247.8c-35.5,29.5-63.7,71.4-79.1,111.3c-16.2,41.9-20.2,89.2-6.4,131.3
		c-11-3-22.4-3.9-33.7-1.9c-34.4,6.3-43.5,37.4-38.4,67c-41-11.4-86.3-7.8-123.7,13.4c-67.7,38.2-105.5,126.1-75.3,200
		c8.4,20.5,22.3,38.8,41.1,50.8c4.4,2.8,9.3,5.4,14.4,7.6c-24.6-32.2-32.2-74.3-17.9-114.5c17.1-48,59.1-85.4,108.9-96.2
		c28-6.1,57-4.1,84.6,2.8c1.1,0.3,2.6-0.9,2.3-2.1c-1.8-8.4,3.3-32.6,20.1-41.2c37.2-19.1,83.9,12,83.3,9.9
		C4044.6,2053.6,4035.6,2023.5,4030,1987.3z"/>
	<path class="st4" d="M4670.2,2155.8c-6.6-78.9-70-156.5-150.7-167.3c-23.1-3.1-46,0.4-67,8.8c1-2.9,1.9-5.9,2.7-8.8
		c6.7-24.6,9.5-54.6-1.4-78.5c-9.3-20.3-30-33.5-51.6-37.2c-25.9-4.4-51.8,5.1-72.4,20.4c-4.3,3.2-8.4,6.7-12.2,10.4
		c2.8-24.6,2-49.5-3.3-74c-10.6-48.5-41.8-92.5-86.3-115.3c-15.2-7.8-30.4-12.2-45.2-13.8c22,17.9,38.6,42,48.6,70.1
		c16.7,46.8,17,99,8.6,147.5c-4.4,25.5-11.4,50.6-21.5,74.5c-0.7,1.6,0.3,3.2,2.1,3.3c22.2,0.7,44.9,5.2,57.6,21.5
		c18.7,24.1,18.9,62-5.1,84c-1.8,1.7,0,2.8,1.9,4.2c62.6,49,65.4,202.4,40.6,256.5c-56.8,123.8-208,64.8-208,64.8
		s-42.1,50.4-86.3,103.3c44.7,11.7,90.4,19.5,136.1,22.7c22.4,1.6,46.2,0.9,66.3-10.4c8.4-4.7,15.8-11.3,21.1-19.1
		c18.1,17.1,40.3,30.2,63.4,38.1c3.7,1.3,7.5,2.4,11.4,3.3c0.4,0.8,0.8,1.6,1.2,2.4c24.7,46.6,83.9,70.9,135,61.1
		c1.8-0.4,3.6-0.7,5.5-1.2c0.8-0.2,1.5-0.4,2.3-0.6c1-0.3,2.1-0.5,3.1-0.8c0.9-0.2,1.7-0.5,2.6-0.8c0.9-0.3,1.9-0.6,2.8-0.9
		c0.9-0.3,1.7-0.6,2.6-0.9c0.9-0.3,1.8-0.6,2.6-1c0.9-0.3,1.8-0.7,2.6-1c0.8-0.3,1.7-0.7,2.5-1c0.9-0.4,1.8-0.8,2.6-1.2
		c0.8-0.4,1.6-0.7,2.4-1.1c0.9-0.4,1.8-0.9,2.7-1.3c0.7-0.4,1.5-0.8,2.2-1.1c0.9-0.5,1.9-1,2.8-1.5c0.2-0.1,0.4-0.2,0.5-0.3
		c41.9-23.5,72.1-68.5,76-116.5c1.9-22.8-2.4-46.7-14.5-65.6c15.7-14.5,27.2-33.5,31.6-55.7c3.9-20.2,2.3-41-5-59.7
		c22.9-12.3,42.8-31.7,56.9-51.9C4662.4,2232.7,4673.5,2194.1,4670.2,2155.8z"/>
</g>
<g id="Wind_turbines">
	<g>
		<path class="st5" d="M1826.2,3019.8h-64.8l5.2-462.4l0.5-46.1l8.7-781.8l0.1-11.7l0.5-44.7h34.7l0.2,19.1l0.1,5.1
			c0,0,0.4,35.7,0.4,35.7l8.7,778.2l0.5,46.1L1826.2,3019.8z"/>
		<path class="st6" d="M1811.4,1697.4c0,13.6,0.8,20.8-17.6,20.8c-7.9,0-28.9-0.5-37.9-2.2c-18.1-3.4-33.4-15.7-33.4-35.6
			c0-19.8,15.3-32.2,33.4-35.5c9-1.7,27.9-2.1,41.3,5.2C1813.3,1659.1,1811.4,1678,1811.4,1697.4z"/>
		<g>
			<path class="st5" d="M1750.1,1680.9l-89.8-117.7l-24.6-32.2l-27-35.3l-57-74.7l-32.5-42.6l-16.4-21.5l-74.6-97.8
				c-2.8-3.7,2.4-8.1,5.6-4.7l84.2,88.6l18.5,19.5l48.9,51.4l66.6,70.1l15.9,16.7l2.3,2.4c8.6,9,16.2,19,22.5,29.6
				c5.8,9.6,10.6,19.7,14.5,30.2L1750.1,1680.9z"/>
			<path class="st5" d="M1750.1,1680.9l-60.3,157.8l-14.4,37.7l-70.3,183.9l-9.6,25.1l-34.8,91.1c-1.7,4.3-8.1,2.2-7-2.2l25-95
				l6.9-26.1l49.9-189.9l5.5-21c1.6-6.1,3.5-12,5.7-17.8c6.2-16.2,14.9-31.4,25.7-45.1L1750.1,1680.9z"/>
			<path class="st5" d="M2270,1572.8l-106.7,36.2l-25.5,8.7l-192.9,65.4c-1.7,0.6-3.5,1.1-5.2,1.7c-13,4-26.4,6.3-40,7.1
				c-8.2,0.5-16.4,0.4-24.6-0.3l-125-10.7l137.3-30.5l39.5-8.8l204.6-45.4l26.3-5.9l110.2-24.5
				C2272.5,1564.8,2274.4,1571.4,2270,1572.8z"/>
		</g>
		<polygon class="st7" points="1821,2557.4 1766.6,2557.4 1767.1,2511.3 1820.5,2511.3 		"/>
		<path class="st5" d="M1780.1,1680.5c0,0.2,0,0.3,0,0.5c-0.5,36.5-55.8,37.8-57.5,1.3c0-0.6,0-1.2,0-1.8c0-1.2,0.1-2.5,0.2-3.6
			c3.5-35.5,56.5-32.9,57.4,2.8C1780.1,1679.9,1780.1,1680.2,1780.1,1680.5z"/>
		<path class="st7" d="M1518,1342.9l-15.1,13.9l16.4,21.5l17.3-15.9L1518,1342.9z M2157.8,1590.3l-26.3,5.9c2,6.9,4.1,14.1,6.3,21.5
			l25.5-8.7C2161.4,1602.7,2159.6,1596.4,2157.8,1590.3z M1578.6,2079.2l16.8,6.1l9.6-25.1l-19.6-7.1L1578.6,2079.2z"/>
		<path class="st6" d="M1826.2,3019.8l-14.4-1286.7c0,0-0.2-13.5-0.2-13.5l-0.2-16.1c0,0-0.1-6.1-0.1-6.1
			c-8.5,20.4-35.4,20.4-35.5,20.4l-0.1,11.7c9.6,2.8,23.2,3.5,32.3,3.6l-10.9,1286.7H1826.2z"/>
		<path class="st7" d="M1761.4,1680.4c0,0.1,0,0.1,0,0.2c-0.2,12.8-19.5,13.3-20.2,0.5c0-0.2,0-0.4,0-0.6c0-0.4,0-0.9,0.1-1.3
			c1.2-12.4,19.8-11.5,20.1,1C1761.4,1680.2,1761.4,1680.3,1761.4,1680.4z"/>
		<path class="st6" d="M1652.1,1483.9c-15.5,4.6-31.4,8.7-43.4,11.6l-57-74.7l33.7-7L1652.1,1483.9z"/>
	</g>
	<g>
		<path class="st5" d="M1482.4,3019.8h-75.1l6-536l0.6-53.5L1424,1524l0.2-13.5l0.6-51.8h40.3l0.2,22.2l0.1,5.9
			c0,0,0.5,41.4,0.5,41.4l10.1,902.2l0.6,53.5L1482.4,3019.8z"/>
		<path class="st6" d="M1465.3,1486.8c0,15.8,0.9,24.2-20.4,24.2c-9.1,0-33.5-0.6-43.9-2.5c-21-3.9-38.7-18.2-38.7-41.2
			c0-23,17.7-37.3,38.7-41.2c10.4-1.9,32.3-2.5,47.8,6.1C1467.5,1442.4,1465.3,1464.4,1465.3,1486.8z"/>
		<g>
			<path class="st5" d="M1394.1,1467.6L1290,1331.2l-28.5-37.4l-135-176.9l-19-24.9L1021,978.6c-3.2-4.3,2.7-9.4,6.4-5.5l97.6,102.7
				l21.5,22.6l152.4,160.3l2.7,2.8c10,10.5,18.7,22,26.1,34.3c6.7,11.1,12.3,22.8,16.8,35L1394.1,1467.6z"/>
			<path class="st5" d="M1394.1,1467.6l-69.9,182.9l-16.7,43.7l-81.5,213.2l-11.1,29.1l-40.4,105.6c-1.9,5-9.4,2.6-8.1-2.6
				l28.9-110.1l8-30.3l57.9-220.2l6.4-24.3c1.8-7,4.1-13.9,6.7-20.7c7.2-18.8,17.2-36.4,29.7-52.3L1394.1,1467.6z"/>
			<path class="st5" d="M1996.9,1342.4l-123.7,41.9l-29.6,10l-223.6,75.8c-2,0.7-4,1.3-6.1,1.9c-15.1,4.6-30.6,7.4-46.3,8.3
				c-9.5,0.6-19,0.4-28.5-0.4l-144.9-12.4l159.2-35.4l45.8-10.2l237.2-52.7l30.5-6.8l127.8-28.4
				C1999.8,1333.1,2001.9,1340.7,1996.9,1342.4z"/>
		</g>
		<polygon class="st7" points="1476.4,2483.8 1413.2,2483.8 1413.8,2430.3 1475.8,2430.3 		"/>
		<path class="st5" d="M1429,1467.2c0,0.2,0,0.4,0,0.6c-0.6,42.4-64.6,43.9-66.7,1.6c0-0.7-0.1-1.4-0.1-2.1c0-1.4,0.1-2.8,0.2-4.2
			c4.1-41.1,65.5-38.1,66.5,3.2C1428.9,1466.6,1429,1466.9,1429,1467.2z"/>
		<path class="st7" d="M1125.1,1075.8l-17.6,16.2l19,24.9l20-18.5L1125.1,1075.8z M1866.8,1362.6l-30.5,6.8c2.4,8,4.8,16.4,7.3,24.9
			l29.6-10C1871,1377,1868.9,1369.7,1866.8,1362.6z M1195.3,1929.4l19.5,7.1l11.1-29.1l-22.7-8.2L1195.3,1929.4z"/>
		<path class="st6" d="M1482.4,3019.8l-16.7-1491.6c0,0-0.2-15.8-0.2-15.8l-0.2-18.5c0,0-0.1-7.1-0.1-7.1
			c-9.8,23.7-41.1,23.7-41.1,23.7l-0.2,13.5c11.2,3.2,26.9,4,37.5,4.1l-12.7,1491.7H1482.4z"/>
		<path class="st8" d="M1407.3,1467.1c0,0.1,0,0.1,0,0.2c-0.2,14.8-22.6,15.4-23.4,0.5c0-0.2,0-0.5,0-0.7c0-0.5,0-1,0.1-1.5
			c1.4-14.4,23-13.3,23.3,1.1C1407.3,1466.8,1407.3,1467,1407.3,1467.1z"/>
	</g>
	<g>
		<path class="st5" d="M4097.9,3019.8h-92.2l7.3-657.8l0.7-65.6l12.4-1112.2l0.2-16.6l0.7-63.6h49.4l0.3,27.2l0.1,7.3
			c0,0,0.6,50.8,0.6,50.8l12.4,1107.1l0.7,65.6L4097.9,3019.8z"/>
		<path class="st6" d="M4076.9,1138.5c0,19.4,1.1,29.7-25.1,29.7c-11.2,0-41.1-0.7-53.9-3.1c-25.7-4.8-47.5-22.3-47.5-50.6
			c0-28.2,21.8-45.8,47.5-50.6c12.8-2.4,39.6-3,58.7,7.5C4079.6,1084.1,4076.9,1111,4076.9,1138.5z"/>
		<g>
			<path class="st5" d="M3989.6,1115l-127.8-167.4l-35-45.9l-165.7-217.1l-23.3-30.6l-106.2-139.1c-4-5.2,3.4-11.5,7.9-6.7
				l119.8,126l26.4,27.7l187,196.7l3.3,3.4c12.2,12.9,23,27,32.1,42.1c8.2,13.6,15.1,28,20.6,43L3989.6,1115z"/>
			<path class="st5" d="M3989.6,1115l-85.8,224.4l-20.5,53.7l-100,261.6l-13.7,35.7L3720,1820c-2.4,6.1-11.6,3.2-9.9-3.2l35.5-135.1
				l9.8-37.2l71-270.2l7.8-29.8c2.3-8.6,5-17.1,8.2-25.3c8.8-23.1,21.1-44.7,36.5-64.1L3989.6,1115z"/>
			<path class="st5" d="M4729.2,961.3l-151.8,51.5l-36.3,12.3l-274.4,93c-2.5,0.8-5,1.6-7.5,2.4c-18.5,5.6-37.6,9-56.9,10.1
				c-11.6,0.7-23.3,0.5-35-0.5l-177.9-15.2l195.3-43.4l56.2-12.5l291.1-64.6l37.5-8.3l156.8-34.8
				C4732.9,949.9,4735.5,959.2,4729.2,961.3z"/>
		</g>
		<polygon class="st7" points="4090.5,2362 4013.1,2362 4013.8,2296.4 4089.8,2296.4 		"/>
		<path class="st5" d="M4032.3,1114.5c0,0.2,0,0.5,0,0.7c-0.7,52-79.3,53.8-81.9,1.9c0-0.9-0.1-1.7-0.1-2.6c0-1.8,0.1-3.5,0.3-5.2
			c5-50.5,80.4-46.7,81.7,3.9C4032.3,1113.7,4032.3,1114.1,4032.3,1114.5z"/>
		<path class="st7" d="M3659.4,634.2l-21.5,19.8l23.3,30.6l24.6-22.7L3659.4,634.2z M4569.7,986.2l-37.5,8.3
			c2.9,9.9,5.9,20.1,9,30.6l36.3-12.3C4574.8,1003.8,4572.2,994.9,4569.7,986.2z M3745.6,1681.7l23.9,8.7l13.7-35.7l-27.8-10.1
			L3745.6,1681.7z"/>
		<path class="st6" d="M4097.9,3019.8l-20.4-1830.5c0,0-0.2-19.5-0.2-19.5l-0.3-22.5c0,0-0.1-8.7-0.1-8.7
			c-12,29-50.4,29.1-50.5,29.1l-0.2,16.6c13.7,4,33,4.9,46,5.1l-15.6,1830.5H4097.9z"/>
		<path class="st7" d="M4005.7,1114.4c0,0.1,0,0.2,0,0.2c-0.3,18.2-27.8,18.9-28.7,0.7c0-0.3,0-0.6,0-0.9c0-0.6,0-1.2,0.1-1.8
			c1.7-17.7,28.2-16.4,28.6,1.4C4005.7,1114.1,4005.7,1114.2,4005.7,1114.4z"/>
	</g>
</g>
<g id="Recycling_sign">
	<g>
		<path class="st9" d="M2497.2,884.1h-217.1l46.7-80.8l23.6-41l12.5-21.6L2334,622.2l-108.7,32.3l-6.5,11.3l-9,15.6l-116.5,201.8
			c-0.2,0.3-0.3,0.6-0.5,0.9c-13.5,23.9-16.9,49.7-12.3,73.6c5.1,26.4,19.8,50.4,41.2,66.7c17.9,13.6,40.4,22,65.8,22h309.8
			c7.5,0,13.5-6.1,13.5-13.5V897.6C2510.8,890.1,2504.7,884.1,2497.2,884.1z M3006.8,883.2l-168.3-291.5c-3.8-6.6-12.4-8.8-18.9-4.7
			l-114.6,71.8c-6.2,3.9-8.2,11.9-4.5,18.2l71.3,123.4l48.2,83.5c0,0-168.8,0-168.8,0l-61.9,58.3v44l62.4,60h260.9
			c26.7,0,50.2-9.2,68.5-24.2c20.9-17,34.9-41.4,39.1-68C3023.8,931,3020,906.2,3006.8,883.2z M2735.6,413.5l-2.6-4.6l-88.7-153.6
			c-13.3-23.1-33-38.8-55-47.2c-25.1-9.6-53.3-9.6-78.5,0c-22,8.4-41.7,24.1-55,47.2l-29.2,50.6l-113.1,195.9
			c-3.7,6.3-1.6,14.4,4.6,18.3l115.1,71.1c6.5,4,15,1.9,18.8-4.8l58.8-101.9l39.2-67.9l39.2,67.9l5.5,9.6l2.7,4.6l28.5,49.5l3.9,1
			l8,2.1l64.1,16.8l37.9-23.8l17.2-81.7l1.9-8.8L2735.6,413.5z"/>
		<path class="st4" d="M2758.9,453.9l-1.9,8.8l-17.2,81.6l-37.9,23.8l-64.1-16.8l-8-2.1l-3.9-1l-28.5-49.5l-2.7-4.6l-5.5-9.6
			l-39.2-67.9l-94.2-161.4c13.3-23.1,33-38.8,55-47.2c25.1-9.6,53.3-9.6,78.4,0c22,8.4,41.7,24.1,55,47.2l88.7,153.6l2.6,4.6
			L2758.9,453.9z"/>
		<path class="st4" d="M3020.2,954.2c-4.2,26.6-18.3,51-39.1,68c-18.3,14.9-41.8,24.1-68.5,24.1h-260.9l-62.4-60.1v-44l61.9-58.3
			h168.8l186.9-0.9C3020,906.2,3023.8,931,3020.2,954.2z"/>
		<path class="st4" d="M2393.8,782.3c1.2,4.8-4,8.8-8.3,6.3l-14.9-8.6L2191,676.7l-21.1-12.1c-4.3-2.5-3.6-8.9,1.2-10.4l39.7-11.8
			l133-39.5c3.1-0.9,6.4,0.9,7.1,4.1l35.5,145.3L2393.8,782.3z"/>
		<path class="st4" d="M2701.7,836.3c3.6-3.4,9.6-0.8,9.6,4.2l-0.1,17.2l-0.2,26.4l-1,162.3l-0.1,18.4l-0.1,24.3c0,5-6,7.5-9.6,4.1
			l-29.8-28.7l-18.8-18.1l-62.4-60.1l-18.8-18.1c-2.3-2.2-2.3-6,0-8.2l18.7-17.7l61.9-58.3l28.3-26.6L2701.7,836.3z"/>
		<path class="st4" d="M2772.5,390.7c4.2-2.6,9.6,1.1,8.5,6l-8.5,40.5l-3.5,16.7l-1.9,8.8l-17.2,81.6l-0.6,3.1l-5.4,25.5
			c-0.7,3.2-3.9,5.1-7,4.3l-24.9-6.5l-3-0.8l-7.1-1.9l-64.1-16.8l-8-2.1l-3.9-1l-33.7-8.8l-29.8-7.8c-4.8-1.3-5.8-7.7-1.5-10.3
			l14.6-9l21.8-13.5l0.6-0.4l6.8-4.2l130.7-80.7l0.5-0.3l6.9-4.2l8.8-5.4L2772.5,390.7z"/>
		<path class="st4" d="M2362.9,740.7l-82.3,143.4l-93.2,162.3c-25.4,0-47.9-8.3-65.8-22c-21.4-16.4-36.2-40.3-41.3-66.7
			c-4.6-23.9-1.2-49.7,12.3-73.6c0.2-0.3,0.3-0.6,0.5-0.9l116.5-201.8l9-15.6c18.8-3.3,30.4-4.4,30.4-4.4L2362.9,740.7z"/>
	</g>
	<g>
		<path class="st7" d="M2492.4,740.3l24,1.4c2.3,0.1,3.9,2.2,3.6,4.5c-2,11.8-6.9,21-14.8,27.6c-8.8,7.4-19.5,11.1-32.3,11.1
			c-15.4,0-27.7-5.1-37.2-15.2c-9.4-10.2-14.2-24.2-14.2-42.1c0-17.7,4.5-32,13.4-42.9c8.9-10.9,21.4-16.3,37.4-16.3
			c15,0,26.5,4.1,34.5,12.4c7.2,7.4,11.6,17,13.2,28.8c0.3,2.2-1.4,4.2-3.6,4.4l-24.4,1.3c-2.1,0.1-3.9-1.5-4-3.6
			c-0.4-5.6-1.8-9.8-4.2-12.6c-2.9-3.4-6.3-5.1-10.2-5.1c-10.9,0-16.4,11-16.4,33c0,12.3,1.4,20.7,4.3,25.1c2.8,4.4,6.8,6.6,12,6.6
			c8.3,0,13.3-5.1,15-15.3C2488.7,741.6,2490.4,740.2,2492.4,740.3z"/>
		<path class="st7" d="M2582,785c-15.9,0-28.9-5.3-38.9-15.8c-10-10.5-15-24.7-15-42.3c0-16.9,4.8-30.9,14.4-41.9
			c9.6-11,22.9-16.5,39.9-16.5c15.7,0,28.6,5.2,38.5,15.6c9.9,10.4,14.9,24.2,14.9,41.6c0,17.9-5,32.3-15,43.2
			C2610.7,779.6,2597.8,785,2582,785z M2581.9,759.3c5.9,0,10.1-2.6,12.6-7.7c2.6-5.1,3.9-14.5,3.9-28c0-19.7-5.3-29.5-15.8-29.5
			c-11.4,0-17.1,11.2-17.1,33.6C2565.5,748.8,2570.9,759.3,2581.9,759.3z"/>
		<path class="st7" d="M2693.9,771.8l-0.3,7.7c-0.1,2-1.8,3.7-3.8,3.7h-40.4c-2.1,0-3.8-1.7-3.8-3.8v-8.6c0-1.3,0.6-2.4,1.6-3.1
			l9.1-6.4c1.6-1.1,4.5-3.4,8.8-6.9c4.3-3.5,7.1-6.3,8.4-8.2c1.3-1.9,2-3.9,2-6c0-2-0.6-3.6-1.7-4.8c-1.1-1.2-2.6-1.8-4.5-1.8
			c-3.7,0-6.1,2.4-7.2,7.1c-0.5,2-2.4,3.4-4.5,3l-8.1-1.6c-2.2-0.4-3.6-2.6-3-4.7c1.5-5.4,4.1-9.6,7.8-12.6
			c4.6-3.6,10.1-5.4,16.4-5.4c6.8,0,12.4,1.8,16.7,5.5c4.3,3.7,6.5,8.5,6.5,14.6c0,4-1.2,7.9-3.5,11.6c-2,3.1-7.4,7.7-16.1,13.7
			c-1.3,0.9-0.7,3,0.9,3h15.1C2692.3,767.8,2694,769.7,2693.9,771.8z"/>
	</g>
</g>
<g id="Eco-friendly_factory_3_">
	<g id="Eco-friendly_factory_2_">
		<g>
			<path class="st3" d="M2907.9,1521.4c-0.2-1.7-0.5-3.3-0.7-5c0-0.2-0.1-0.5-0.1-0.7c-0.2-1.4-0.5-2.9-0.7-4.3
				c-0.1-0.4-0.1-0.7-0.2-1.1c-0.2-1-0.3-1.9-0.5-2.8c-0.2-1.2-0.5-2.3-0.7-3.5c-0.6-3.1-1.3-6.1-2-9.1c-0.4-1.5-0.7-3-1.1-4.6
				c-0.8-3-1.6-6-2.5-9c-0.2-0.7-0.4-1.3-0.6-2c-0.3-1.2-0.7-2.3-1.1-3.5c-0.4-1.4-0.9-2.7-1.3-4.1c-0.3-1-0.7-2.1-1.1-3.1
				c-0.4-1.3-0.9-2.6-1.4-3.9c-0.3-0.8-0.6-1.6-0.9-2.4c-0.4-1-0.8-2.1-1.2-3.1c-0.4-1.1-0.9-2.3-1.3-3.4c-0.6-1.5-1.2-2.9-1.8-4.4
				c-2-4.7-4-9.4-6.2-14c-0.5-1-0.9-1.9-1.4-2.9c-1-2.2-2.1-4.3-3.2-6.4c-0.4-0.8-0.8-1.6-1.2-2.4c-1.1-2.1-2.2-4.2-3.4-6.3
				c-0.5-1-1.1-1.9-1.6-2.9c-0.8-1.4-1.5-2.7-2.3-4.1c-2.4-4.1-4.8-8.1-7.3-12.1c-0.7-1.2-1.5-2.3-2.2-3.5c-0.1-0.2-0.3-0.4-0.4-0.6
				c-0.8-1.2-1.6-2.4-2.4-3.6c-0.1-0.1-0.1-0.2-0.2-0.3c-0.8-1.3-1.7-2.5-2.6-3.8c-0.8-1.2-1.6-2.3-2.4-3.5c-0.7-1-1.4-1.9-2-2.9
				c-0.7-1-1.4-1.9-2.1-2.9c-0.6-0.8-1.1-1.5-1.7-2.3c-0.9-1.2-1.9-2.5-2.8-3.7c-1-1.2-1.9-2.5-2.9-3.7c-2.7-3.5-5.5-7-8.4-10.4
				c0,0,0,0,0-0.1c-10.4-12.5-21.5-24.5-33-36l-0.8-0.8c-0.7-0.7-1.7-1-2.6-0.8c-0.7,0.1-1.3,0.6-1.6,1.5
				c-21.3,65.7-7.8,138.6,35.5,191.5c4.4,5.3,9.1,10.5,14,15.4c7.6,7.5,15.7,14.5,24.4,20.7c6.7,4.7,13.7,9,21,12.6
				c1.2,1.4,2.5,2.9,3.7,4.3c2.7,3.1,5.5,6.3,8.2,9.5c0.9,1,1.8,2,2.6,3c0.2,0.2,0.3,0.3,0.5,0.5c1.9,1.4,4.7-0.2,4.9-2.5
				c0-0.3,0.1-0.5,0.1-0.8c0-0.2,0-0.4,0.1-0.6c0.3-3,0.6-6,0.7-9c0.1-1.8,0.2-3.5,0.3-5.3c0.1-1.7,0.1-3.5,0.2-5.2v-0.1
				c0-1.9,0-3.9,0-5.8v-0.6C2909.9,1540.8,2909.2,1531,2907.9,1521.4z"/>
			<path class="st3" d="M3052.5,1342.7c-1.1-21.4-4.9-42.8-11.7-63.6c-0.5-1.6-2-2.1-3.4-1.8c-0.6,0.2-1.2,0.5-1.7,0.9
				c-0.7,0.7-1.5,1.5-2.2,2.2c-17.4,17.4-33.9,35.7-49.1,55.1c-36.4,46.5-64.9,100.8-77.5,158.5c-0.6,2.6-1.1,5.3-1.6,7.9
				c-0.1,0.7-0.2,1.3-0.4,2c-0.3,1.5-0.6,3-0.8,4.5c-0.2,1.2-0.4,2.4-0.6,3.6c-0.2,1.1-0.3,2.2-0.5,3.3c-0.2,1.3-0.4,2.6-0.5,3.8
				c-0.2,1.4-0.4,2.9-0.5,4.3c-0.1,0.9-0.2,1.8-0.3,2.7c-0.1,0.7-0.2,1.4-0.2,2.2c-0.1,1.4-0.3,2.7-0.4,4.1
				c-0.1,1.4-0.2,2.7-0.3,4.1c-0.2,2.1-0.3,4.2-0.4,6.3c-0.3,5.3-0.4,10.7-0.4,16.1c0,0.8,0,1.5,0,2.3c0,1.9,0.1,3.9,0.1,5.8v0.1
				c0,1.3,0.1,2.5,0.2,3.8c0,0.9,0.1,1.9,0.2,2.8c0,0.9,0.1,1.8,0.2,2.7c0,0.1,0,0.2,0,0.4c0.1,1.1,0.2,2.2,0.2,3.2
				c0.2,2.5,0.4,4.9,0.7,7.4c0.3,3.1,4.3,5.1,6.6,2.5c5.9-6.8,11.8-13.5,17.7-20.3c5.2-2.6,10.2-5.4,15.2-8.4
				c11.5-7.2,22.3-15.5,32.3-24.7c2.6-2.3,5.1-4.7,7.5-7.1C3030.8,1480.1,3055.9,1411.4,3052.5,1342.7z"/>
			<path class="st4" d="M2980.8,1529.5c-2.5,2.4-5,4.8-7.5,7.1c-10,9.1-20.8,17.5-32.3,24.7c-4.9,3.1-10,5.9-15.2,8.4
				c-5.9,6.8-11.8,13.5-17.7,20.3c-2.3,2.7-6.2,0.6-6.6-2.5c-0.3-2.5-0.5-4.9-0.7-7.4c-0.5-6.3-0.8-12.6-0.9-18.9
				c-0.1-8.3,0.1-16.5,0.7-24.7c0.8-11.7,2.4-23.3,4.6-34.7c76.5,36.6,128.2-96.8,147.2-159.2
				C3055.9,1411.4,3030.8,1480.1,2980.8,1529.5z"/>
			<path class="st4" d="M2910,1550.6c0.1,5.6-0.1,11.3-0.4,16.9c-0.2,3.5-0.5,7-0.9,10.4c-0.3,2.3-3,3.9-4.9,2.5
				c-0.2-0.1-0.3-0.3-0.5-0.5c-3.6-4.2-7.2-8.3-10.9-12.5c-1.2-1.4-2.5-2.9-3.7-4.3c-7.3-3.6-14.3-7.9-21-12.6
				c-8.7-6.2-16.9-13.2-24.4-20.7c-5-4.9-9.7-10.1-14-15.4c11.8,3,24,2.4,35.7-4.5c44-26.2-30.5-146.6-33.1-150.8
				c2.9,3.4,5.7,6.9,8.4,10.4c34.4,44,60.3,96.4,67.7,151.7C2909.2,1531,2909.9,1540.8,2910,1550.6z"/>
			<polygon class="st9" points="3077.3,2663.8 2725.8,2663.8 2736.1,2486.6 2750.2,2243.3 2786.2,1621.9 2787,1607.3 2789.7,1561.3 
				3013.4,1561.3 3014.3,1576.9 3016.1,1607.3 3016.9,1621.9 3019.7,1671 3022,1709.2 3025,1762.2 3027.2,1800.4 3030.3,1853.3 
				3032.5,1891.6 3035.6,1944.5 3037.8,1982.7 3040.9,2035.7 3043.1,2073.9 3046.2,2126.8 3048.4,2165 3051.5,2218 3053.7,2256.2 
				3056.7,2309.1 3059,2347.3 3059.4,2355.5 3062,2400.3 3064.2,2438.5 3071.2,2557.9 			"/>
			<g>
				<polygon class="st7" points="3022,1709.2 2880.5,1709.2 2880.5,1671 3019.8,1671 				"/>
				<polygon class="st7" points="3027.2,1800.4 2880.5,1800.4 2880.5,1762.2 3025,1762.2 				"/>
				<polygon class="st7" points="3032.5,1891.5 2880.5,1891.5 2880.5,1853.3 3030.3,1853.3 				"/>
				<polygon class="st7" points="3037.8,1982.7 2880.5,1982.7 2880.5,1944.5 3035.6,1944.5 				"/>
				<polygon class="st7" points="3043.1,2073.8 2880.5,2073.8 2880.5,2035.7 3040.9,2035.7 				"/>
				<polygon class="st7" points="3048.4,2165 2880.5,2165 2880.5,2126.8 3046.2,2126.8 				"/>
				<polygon class="st7" points="3053.7,2256.2 2880.5,2256.2 2880.5,2218 3051.5,2218 				"/>
				<polygon class="st7" points="3059,2347.3 2880.5,2347.3 2880.5,2309.1 3056.7,2309.1 				"/>
				<polygon class="st7" points="3064.2,2438.5 2880.5,2438.5 2880.5,2400.3 3062,2400.3 				"/>
			</g>
			<polygon class="st7" points="3016.9,1621.9 2786.2,1621.9 2787,1607.3 2789.7,1561.3 3013.4,1561.3 3016.1,1607.3 			"/>
			<path class="st10" d="M3064.2,2438.5l-2.2-38.2l-2.6-44.7c0,0-0.5-8.2-0.5-8.2l-2.2-38.2l-3.1-53l-2.2-38.2l-3.1-52.9l-2.2-38.2
				l-3.1-53l-2.2-38.2l-3.1-53l-2.2-38.2l-3.1-52.9l-2.2-38.2l-3.1-53l-2.2-38.2l-3.1-53l-2.2-38.2l-2.9-49.1l-0.8-14.6l-1.8-30.3
				l-55.1-5c0.7,7.1,6.6,450.1,10.7,763.2l-220-85.5l-13.7,237c3.9,6.5,8.2,12.1,13.1,16.8c49.1,47,166.1,71.7,223.9,82.4
				c0.5,36.2,0.7,57.3,0.7,57.3s27.4,11,61.3,20.6h42.2L3064.2,2438.5z"/>
			<path class="st9" d="M3036.7,1545.9v52.1c0,5.1-4.1,9.2-9.3,9.2h-251.7c-5.1,0-9.3-4.1-9.3-9.2v-52.1c0-5.1,4.1-9.3,9.3-9.3
				h251.7C3032.5,1536.7,3036.7,1540.8,3036.7,1545.9z"/>
			<path class="st10" d="M3027.4,1536.7h-29.3v28.2c-1,8-9.2,26.8-65.6,26.8h-166.1v6.4c0,5.1,4.1,9.2,9.3,9.2h222.4h17.9h11.3
				c5.1,0,9.3-4.1,9.3-9.2v-52.1C3036.7,1540.8,3032.5,1536.7,3027.4,1536.7z"/>
		</g>
		<g>
			<path class="st3" d="M3485.8,1445.2c0-0.1-0.1-0.2-0.1-0.3c-0.7-1.6-2.9-1.5-4-0.4c-14.8,14.7-28.8,30.1-41.7,46.6
				c-33.9,43.3-59.3,94.8-66.6,149.3c0,0,0,0.1,0,0.1c-1.1,8.5-1.8,17-2,25.6c-0.2,6.3,0,12.7,0.3,19.1c0.2,3.7,0.5,7.3,0.9,11
				c0.2,2.3,3,3.9,4.8,2.5c0.2-0.1,0.3-0.3,0.5-0.5c3.8-4.3,7.6-8.7,11.3-13c1-1.2,2-2.3,3-3.5c8.8-4.3,17.1-9.6,25-15.6
				c7-5.3,13.6-11,19.7-17.1C3490.5,1596.2,3508.9,1516.4,3485.8,1445.2z"/>
			<path class="st3" d="M3377.3,1666.1c-0.7-8.6-2.1-17.2-3.9-25.6c0,0,0-0.1,0-0.1c-8.5-38.9-27.7-75.5-52.3-106.9
				c-2.7-3.5-5.6-7-8.4-10.4c0,0,0,0,0,0c-8.3-9.8-17-19.2-26.1-28.2c-1-1-2.9-1-3.4,0.6c-0.3,0.8-0.5,1.6-0.8,2.4
				c-14.2,46.1-7.5,96.3,17.4,136.6c2.1,3.4,4.3,6.7,6.7,10c5.1,7.1,10.9,13.8,17.2,20c0.5,0.5,1.1,1.1,1.7,1.6
				c7.4,7.1,15.4,13.6,24,19.1c3.7,2.3,7.5,4.5,11.4,6.4c2.8,3.2,5.6,6.5,8.4,9.7c1.2,1.3,2.3,2.7,3.5,4c1.6,1.8,4.2,0.4,4.4-1.7
				c0.1-1.2,0.2-2.4,0.3-3.6c0-0.5,0.1-1,0.1-1.4c0.4-4.5,0.6-9,0.6-13.5C3378.1,1678.8,3377.9,1672.4,3377.3,1666.1z"/>
			<path class="st3" d="M3384.7,1466c-0.7-17.8-3.6-35.4-8.5-52.5c-1.7-5.9-3.6-11.6-5.7-17.4c-1.1-2.8-5.4-2.1-6.2,0.5
				c-7.3,23-16.1,46-16.2,70.5c0,11,1.5,22.1,5.2,32.4c1.3,3.6,3.1,7.9,5.4,12.1c3.4,6.1,7.8,11.9,13,14.8
				c7.7,4.3,11.3-22.2,11.7-26C3384.9,1489.1,3385.2,1477.5,3384.7,1466z"/>
			<path class="st9" d="M3553.8,2781h-351.5l9.1-157.7l11-189.9l40.3-694.3l0.8-14.6c0,0,0.9-15.7,0.9-15.7l1.8-30.3h223.7l0.9,15.6
				l1.8,30.3c0,0,0.8,14.6,0.8,14.6l2.9,49.1l2.2,38.2l3.1,53l2.2,38.2l3.1,53l2.2,38.2l3.1,52.9l2.2,38.2l3.1,53l2.2,38.2l3.1,53
				l2.2,38.2l3.1,52.9l2.2,37.1l0.1,1.1l3.1,53l2.2,38.2l3.1,53l2.2,38.2l8.1,139.3L3553.8,2781z"/>
			<g>
				<polygon class="st7" points="3498.5,1826.4 3357,1826.4 3357,1788.2 3496.3,1788.2 				"/>
				<polygon class="st7" points="3503.8,1917.6 3357,1917.6 3357,1879.4 3501.5,1879.4 				"/>
				<polygon class="st7" points="3509,2008.7 3357,2008.7 3357,1970.5 3506.8,1970.5 				"/>
				<polygon class="st7" points="3514.3,2099.9 3357,2099.9 3357,2061.7 3512.1,2061.7 				"/>
				<polygon class="st7" points="3519.6,2191 3357,2191 3357,2152.8 3517.4,2152.8 				"/>
				<polygon class="st7" points="3524.9,2282.2 3357,2282.2 3357,2244 3522.7,2244 				"/>
				<polygon class="st7" points="3530.2,2373.3 3357,2373.3 3357,2335.1 3528,2335.1 3530.1,2372.3 				"/>
				<polygon class="st7" points="3535.5,2464.5 3357,2464.5 3357,2426.3 3533.2,2426.3 				"/>
				<polygon class="st7" points="3540.7,2555.6 3357,2555.6 3357,2517.5 3538.5,2517.5 				"/>
			</g>
			<polygon class="st7" points="3493.4,1739.1 3262.7,1739.1 3263.5,1724.4 3266.2,1678.5 3489.9,1678.5 3492.6,1724.4 			"/>
			<path class="st4" d="M3437,1648.9c-6.2,6.1-12.8,11.9-19.7,17.1c-7.9,6-16.2,11.3-25,15.6c-1,1.2-2,2.3-3,3.5
				c-3.8,4.3-7.6,8.7-11.3,13c-0.2,0.2-0.3,0.3-0.5,0.5c-1.9,1.4-4.6-0.2-4.8-2.5c-0.4-3.7-0.7-7.3-0.9-11
				c-0.4-6.4-0.5-12.8-0.3-19.1c0.2-8.6,0.9-17.1,2-25.6c0,0,0-0.1,0-0.1c9.9-0.2,20.6-2.4,32.3-6.8
				c69.7-26.2,78.9-151.2,80.1-188.6c0,0.1,0.1,0.2,0.1,0.3C3508.9,1516.4,3490.5,1596.2,3437,1648.9z"/>
			<path class="st4" d="M3378,1685.1c0,4.5-0.2,9-0.6,13.5c0,0.5-0.1,1-0.1,1.4c-2.4,0.7-5.2,1.1-8.3,1.2c-2.8-3.2-5.6-6.5-8.4-9.7
				c-3.9-1.9-7.7-4.1-11.4-6.4c-8.7-5.5-16.7-12-24-19.1c-0.6-0.5-1.1-1.1-1.7-1.6c-6.3-6.3-12.1-13-17.2-20c0,0,22,4.7,32.6-3.7
				c27.8-22.1-24.8-115.2-26.2-117.6c2.9,3.4,5.7,6.9,8.4,10.4c24.6,31.4,43.8,68,52.3,106.9c0,0,0,0.1,0,0.1
				c1.8,8.4,3.2,17,3.9,25.6C3377.9,1672.4,3378.1,1678.8,3378,1685.1z"/>
			<path class="st10" d="M3548.8,2694.9l-8.1-139.3l-2.2-38.2l-3.1-53l-2.2-38.2l-3.1-53l-0.1-1.1l-2.2-37.1l-3.1-52.9l-2.2-38.2
				l-3.1-53l-2.2-38.2l-3.1-53l-2.2-38.2l-3.1-52.9l-2.2-38.2l-3.1-53l-2.2-38.2l-3.1-53l-2.2-38.2l-2.9-49.1l-0.8-14.6
				c0,0-1.8-30.3-1.8-30.3l-20.9-1.9l-34.3-3.1c0.1,0.8,0.2,7,0.4,17.8c0.1,4.9,0.2,10.8,0.3,17.5c0.1,4.5,0.2,9.4,0.2,14.6
				c0.2,13.9,0.5,30.4,0.7,49.1c0.2,11.9,0.4,24.6,0.6,38.2c0.2,16.5,0.5,34.3,0.7,53c0.2,12.3,0.4,25.1,0.5,38.2
				c0.2,17.1,0.5,34.7,0.7,53c0.2,12.5,0.4,25.3,0.5,38.2c0.2,17.3,0.5,35,0.7,52.9c0.2,12.6,0.3,25.4,0.5,38.2
				c0.2,17.5,0.5,35.2,0.7,53c0.2,12.7,0.3,25.4,0.5,38.2c0.2,17.6,0.5,35.3,0.7,53c0.2,12.8,0.3,25.5,0.5,38.2
				c0.2,17.8,0.5,35.4,0.7,52.9c0.2,12.8,0.3,25.6,0.5,38.2c0.2,13.8,0.4,27.5,0.5,41l-23.9,11.9l-24.4,12.2v65l-175.1-70l-11,189.9
				c19.1,17.3,46.1,33.7,84.2,45.3c80.7,24.7,103,49.1,154.1,47.5c0.4,28.1,0.6,44.2,0.6,44.2s27.4,11,61.3,20.6h42.2L3548.8,2694.9
				z"/>
			<path class="st9" d="M3513.2,1663.1v52.1c0,5.1-4.1,9.2-9.3,9.2h-251.7c-5.1,0-9.3-4.1-9.3-9.2v-52.1c0-5.1,4.1-9.3,9.3-9.3
				h251.7C3509,1653.8,3513.2,1658,3513.2,1663.1z"/>
			<path class="st10" d="M3503.9,1653.8h-29.3v28.2c-1,8-9.2,26.8-65.6,26.8h-166.1v6.4c0,5.1,4.1,9.2,9.3,9.2h222.4h17.9h11.3
				c5.1,0,9.3-4.1,9.3-9.2v-52.1C3513.2,1658,3509,1653.8,3503.9,1653.8z"/>
			<path class="st4" d="M3383.4,1500.4c-0.5,3.7-4,30.2-11.7,26c-5.2-2.9-9.6-8.7-13-14.8c24.9-3,21.2-65.6,17.5-98.1
				c4.9,17.1,7.8,34.7,8.5,52.5C3385.2,1477.5,3384.9,1489.1,3383.4,1500.4z"/>
		</g>
	</g>
	<g id="Eco-friendly_factory_1_">
		<rect x="2066.4" y="2197.1" class="st11" width="441.6" height="822.7"/>
		<polygon class="st2" points="3439.6,2570.6 3439.6,3019.8 2508,3019.8 2508,2197.1 		"/>
		<g>
			<polygon class="st12" points="2602.6,2336 2602.6,3019.8 2580.7,3019.8 2580.7,2327.2 			"/>
			<polygon class="st12" points="2675.9,2365.4 2675.9,3019.8 2653.9,3019.8 2653.9,2356.6 			"/>
			<polygon class="st12" points="2749.2,2394.8 2749.2,3019.8 2727.2,3019.8 2727.2,2385.9 			"/>
			<polygon class="st12" points="2822.4,2424.1 2822.4,3019.8 2800.4,3019.8 2800.4,2415.3 			"/>
			<polygon class="st12" points="2895.7,2453.5 2895.7,3019.8 2873.7,3019.8 2873.7,2444.7 			"/>
			<polygon class="st12" points="2968.9,2482.9 2968.9,3019.8 2947,3019.8 2947,2474.1 			"/>
			<polygon class="st12" points="3042.2,2512.2 3042.2,3019.8 3020.2,3019.8 3020.2,2503.4 			"/>
			<polygon class="st12" points="3115.5,2541.6 3115.5,3019.8 3093.5,3019.8 3093.5,2532.8 			"/>
			<polygon class="st12" points="3188.7,2571 3188.7,3019.8 3166.8,3019.8 3166.8,2562.2 			"/>
			<polygon class="st12" points="3262,2600.3 3262,3019.8 3240,3019.8 3240,2591.5 			"/>
			<polygon class="st12" points="3335.3,2629.7 3335.3,3019.8 3313.3,3019.8 3313.3,2620.9 			"/>
			<polygon class="st12" points="3408.5,2659.1 3408.5,3019.8 3386.5,3019.8 3386.5,2650.3 			"/>
		</g>
		<g>
			<path class="st13" d="M2431,2391v27.7c0,10.4-4.2,19.9-11.1,26.7c-6.7,6.7-15.9,10.9-26.1,11h-46.9c-9.7,0-17.6,7.9-17.6,17.6
				v545.7h-65.5v-585.5c0-23.9,19.4-43.3,43.3-43.3H2431z"/>
			<path class="st13" d="M2296.3,2391v27.7c0,10.4-4.2,19.9-11.1,26.7c-6.7,6.7-15.9,10.9-26.1,11h-46.9c-9.7,0-17.6,7.9-17.6,17.6
				v545.7h-65.5v-585.5c0-23.9,19.4-43.3,43.3-43.3H2296.3z"/>
			<g>
				<g>
					<path class="st3" d="M2175,2337.1h-18.9v9c-8.1,6.9-13.3,17.2-13.3,28.7v43.8c0,11.5,5.2,21.8,13.3,28.7v9h18.9
						c20.8,0,37.7-16.9,37.7-37.7v-43.8C2212.7,2354,2195.8,2337.1,2175,2337.1z"/>
					<path class="st14" d="M2142.6,2456.5h27.1c13.4,0,24.2-10.8,24.2-24.2v-70.9c0-13.4-10.8-24.2-24.2-24.2h-27.1
						c-13.4,0-24.2,10.8-24.2,24.2v70.9C2118.4,2445.6,2129.2,2456.5,2142.6,2456.5z"/>
				</g>
				<g>
					<path class="st9" d="M2208.9,2364.7c-3.1,12.1-3,25.2-2.8,37.6c0,2.3,0,4.5-0.1,6.8c-9.9,4.1-18.1,9-23.9,19.5
						c-0.2,0.3-0.3,0.6-0.5,0.9h-198.4c-9.7,0-17.6,7.9-17.6,17.6v542.5h-65.5v-582.3c0-23.9,19.4-43.3,43.3-43.3h265.6
						C2209,2364.3,2208.9,2364.5,2208.9,2364.7z"/>
				</g>
				<path class="st10" d="M2224.6,2379.4c-2.3-7.4-8.4-12.9-15.7-14.7c-1.7-0.4-3.4-0.6-5.2-0.6h-164.5c-23.9,0-43.3,19.4-43.3,43.3
					v8h-22.5c-13.3,0-24.2,10.8-24.2,24.2v534.3h16.6v-526.6c0-9.8,7.9-17.6,17.6-17.6h12.4h112.3h95.6c9.5,0,18-6.2,20.9-15.3
					C2228.3,2402.6,2228.3,2391,2224.6,2379.4z"/>
				<path class="st4" d="M1979.6,2963.8h-93.4c-12.3,0-22.4,10-22.4,22.4v33.6h138.1v-33.6
					C2001.9,2973.8,1991.9,2963.8,1979.6,2963.8z"/>
			</g>
			<g>
				<g>
					<path class="st3" d="M2284.1,2337.1h-18.9v9c-8.1,6.9-13.3,17.2-13.3,28.7v43.8c0,11.5,5.2,21.8,13.3,28.7v9h18.9
						c20.8,0,37.7-16.9,37.7-37.7v-43.8C2321.8,2354,2304.9,2337.1,2284.1,2337.1z"/>
					<path class="st14" d="M2251.7,2456.5h27.1c13.4,0,24.2-10.8,24.2-24.2v-70.9c0-13.4-10.8-24.2-24.2-24.2h-27.1
						c-13.4,0-24.2,10.8-24.2,24.2v70.9C2227.5,2445.6,2238.3,2456.5,2251.7,2456.5z"/>
				</g>
				<g>
					<path class="st9" d="M2223.1,2415.5c2.3-3.5,4.1-7.3,6-11c1-2,2-4,3-6.1c0.1-0.1,0.1-0.2,0.1-0.3c0-0.2,0.1-0.3,0.1-0.5
						c1.1-3.9,3-7.7,4.2-11.6c-0.1-7.3-0.4-14.6-0.8-22h-165c-23.9,0-43.3,19.4-43.3,43.3v582.3h65.5v-542.5
						c0-9.7,7.9-17.6,17.6-17.6h102.6C2216.1,2424.6,2219.9,2420.3,2223.1,2415.5z"/>
				</g>
				<path class="st10" d="M2224.3,2415.3c0.1-0.4,0.3-0.7,0.4-1.1c3.7-11.6,3.6-23.2,0-34.9c-2.9-9.1-11.3-15.3-20.9-15.3h-36.8
					c-23.9,0-43.3,19.4-43.3,43.3v8H2101c-13.3,0-24.2,10.8-24.2,24.2v534.3h16.6v-526.6c0-9.8,7.9-17.6,17.6-17.6h12.5h80.2h32
					c9.2,0,17.4-5.7,20.5-14.2H2224.3z"/>
				<path class="st3" d="M2106.5,2963.8h-93.4c-12.3,0-22.4,10-22.4,22.4v33.6h138.1v-33.6
					C2128.8,2973.8,2118.8,2963.8,2106.5,2963.8z"/>
			</g>
			<g>
				<g>
					<path class="st3" d="M2393.2,2337.1h-18.9v9c-8.1,6.9-13.3,17.2-13.3,28.7v43.8c0,11.5,5.2,21.8,13.3,28.7v9h18.9
						c20.8,0,37.7-16.9,37.7-37.7v-43.8C2431,2354,2414.1,2337.1,2393.2,2337.1z"/>
					<path class="st14" d="M2360.8,2456.5h27.1c13.4,0,24.2-10.8,24.2-24.2v-70.9c0-13.4-10.8-24.2-24.2-24.2h-27.1
						c-13.4,0-24.2,10.8-24.2,24.2v70.9C2336.6,2445.6,2347.5,2456.5,2360.8,2456.5z"/>
				</g>
				<path class="st9" d="M2383.5,2414.3c-0.1,0.4-0.2,0.7-0.4,1.1c-3.2,8.5-11.4,14.2-20.5,14.2h-124.7c-9.7,0-17.6,7.9-17.6,17.6
					v542.5h-65.5v-582.3c0-23.9,19.4-43.3,43.3-43.3h164.5c9.6,0,18,6.2,20.9,15.3C2387.1,2391,2387.1,2402.6,2383.5,2414.3z"/>
				<path class="st10" d="M2383.1,2415.3c-3.2,8.5-11.4,14.2-20.5,14.2h-124.7c-9.7,0-17.6,7.9-17.6,17.6v526.6h-16.6v-534.3
					c0-13.3,10.8-24.2,24.2-24.2H2383.1z"/>
				<path class="st14" d="M2233.7,2963.8h-93.4c-12.3,0-22.4,10-22.4,22.4v33.6H2256v-33.6C2256,2973.8,2246,2963.8,2233.7,2963.8z"
					/>
			</g>
		</g>
	</g>
	<g id="Eco-friendly_factory">
		<g>
			<g>
				<path class="st7" d="M4616.6,2989.7h-65.5v-542.5c0-9.7-7.9-17.6-17.6-17.6h-108.8c-9.5,0-17.3,7.6-17.6,17.1l-0.3,308.1
					c-1,34.9-29.6,62.6-64.5,62.6h-64.5v-65.5h46.4c9.5,0,17.3-7.6,17.6-17.1l0.9-328.7c0.7-23.4,19.9-42,43.3-42h187.2
					c23.9,0,43.3,19.4,43.3,43.3V2989.7z"/>
			</g>
		</g>
		<path class="st4" d="M4537.1,2963.8h93.4c12.3,0,22.4,10,22.4,22.4v33.6h-138.1v-33.6C4514.8,2973.8,4524.8,2963.8,4537.1,2963.8z
			"/>
		<g>
			<path class="st15" d="M4665.9,2989.7h-65.5v-542.5c0-9.7-7.9-17.6-17.6-17.6h-108.8c-9.5,0-17.3,7.6-17.6,17.1l-0.3,308.1
				c-1,34.9-29.6,62.6-64.5,62.6h-64.5v-65.5h46.4c9.5,0,17.3-7.6,17.6-17.1l0.9-328.7c0.7-23.4,19.9-42,43.3-42h187.2
				c23.9,0,43.3,19.4,43.3,43.3V2989.7z"/>
		</g>
		<path class="st3" d="M4586.5,2963.8h93.4c12.3,0,22.4,10,22.4,22.4v33.6h-138.1v-33.6C4564.1,2973.8,4574.1,2963.8,4586.5,2963.8z
			"/>
		<g>
			<g>
				<path class="st9" d="M4715.3,2989.7h-65.5v-542.5c0-9.7-7.9-17.6-17.6-17.6h-108.8c-9.5,0-17.3,7.6-17.6,17.1l-0.3,308.1
					c-1,34.9-29.6,62.6-64.5,62.6h-64.5v-65.5h46.4c9.5,0,17.3-7.6,17.6-17.1l0.9-328.7c0.7-23.4,19.9-42,43.3-42H4672
					c23.9,0,43.3,19.4,43.3,43.3V2989.7z"/>
			</g>
		</g>
		<path class="st14" d="M4635.9,2963.8h93.4c12.3,0,22.4,10,22.4,22.4v33.6h-138.1v-33.6C4613.5,2973.8,4623.5,2963.8,4635.9,2963.8
			z"/>
		<rect x="3439.6" y="2462.1" class="st11" width="264.8" height="557.6"/>
		<polygon class="st16" points="4360.8,3019.8 3704.4,3019.8 3704.4,2462.1 4360.8,2180.9 		"/>
		<polygon class="st17" points="3704.4,2462.1 3439.6,2462.1 4095.9,2180.9 4360.8,2180.9 		"/>
		<g>
			<rect x="3778.6" y="2486.6" class="st2" width="508" height="49.7"/>
			<rect x="3778.6" y="2593.5" class="st2" width="508" height="49.7"/>
			<rect x="3778.6" y="2700.4" class="st2" width="508" height="49.7"/>
			<rect x="3778.6" y="2807.3" class="st2" width="508" height="49.7"/>
			<rect x="3778.6" y="2914.1" class="st2" width="508" height="49.7"/>
		</g>
		<rect x="3514.4" y="2777" class="st15" width="115.3" height="242.8"/>
		<path class="st3" d="M4389.4,2868.8h-28.6v-168.4h28.6c13.2,0,23.8,10.7,23.8,23.8V2845
			C4413.2,2858.1,4402.6,2868.8,4389.4,2868.8z"/>
	</g>
</g>
<g id="Solar_Panel">
	<polygon class="st18" points="3655.8,2720.8 3655.8,3063.7 3423.3,3063.7 3458.5,3011.6 3589,2819.3 	"/>
	<polygon class="st19" points="3611.8,2819.3 3611.8,3063.7 3458.5,3063.7 3458.5,3011.6 3589,2819.3 	"/>
	<polygon class="st20" points="3754.2,2649.4 3721.6,2621 3170.8,2621 2925.5,3063.7 3524.7,3063.7 	"/>
	<polygon class="st13" points="3721.6,2621 3592.5,2854.1 3492.1,3035.3 2958.5,3035.4 2893,3035.4 2892.8,3035.4 2965.1,2905 
		2965.8,2903.7 3122.4,2621.1 3122.5,2621 	"/>
	<polygon class="st18" points="2893,3035.4 3492.1,3035.3 3524.7,3063.7 2925.5,3063.7 	"/>
	<g>
		<path class="st18" d="M3032.9,2961.2l-2.2,3.9l-23.7,42.2c-2.4,4.2-7.8,7.7-12.1,7.7h-61.6c-4.3,0-5.8-3.4-3.5-7.7l25.9-46.1
			c2.4-4.3,7.8-7.7,12.1-7.7h61.6C3033.7,2953.5,3035.2,2957,3032.9,2961.2z"/>
		<path class="st18" d="M3128,2961.2l-2,3.5l-23.9,42.5c-2.4,4.2-7.8,7.7-12.1,7.7h-61.6c-4.3,0-5.9-3.4-3.5-7.7l25.8-46.1
			c2.4-4.3,7.8-7.7,12.1-7.7h61.6C3128.8,2953.5,3130.4,2957,3128,2961.2z"/>
		<path class="st18" d="M3223.2,2961.2l-1.8,3.1l-24.1,42.9c-2.4,4.2-7.8,7.7-12.1,7.7h-61.6c-4.3,0-5.9-3.4-3.5-7.7l25.8-46.1
			c2.4-4.3,7.8-7.7,12.1-7.7h61.6C3224,2953.5,3225.6,2957,3223.2,2961.2z"/>
		<path class="st18" d="M3280.4,3015h-61.6c-4.3,0-5.9-3.4-3.5-7.7l25.8-46.1c2.4-4.3,7.8-7.7,12.1-7.7h61.6c4.3,0,5.9,3.4,3.5,7.7
			l-25.8,46.1C3290.1,3011.6,3284.7,3015,3280.4,3015z"/>
		<path class="st18" d="M3413.5,2961.2l-1.6,2.9l-24.2,43.1c-2.4,4.2-7.8,7.7-12.1,7.7h-61.6c-4.3,0-5.9-3.4-3.5-7.7l25.8-46.1
			c2.4-4.3,7.8-7.7,12.1-7.7h61.6C3414.3,2953.5,3415.9,2957,3413.5,2961.2z"/>
		<path class="st18" d="M3508.7,2961.2l-1.5,2.8l-24.3,43.3c-2.4,4.2-7.8,7.7-12.1,7.7h-61.6c-4.3,0-5.9-3.4-3.5-7.7l25.8-46.1
			c2.4-4.3,7.8-7.7,12.1-7.7h61.6C3509.5,2953.5,3511,2957,3508.7,2961.2z"/>
		<path class="st18" d="M3076.8,2883l-1.8,3.3l-24,42.8c-2.4,4.3-7.8,7.7-12.1,7.7h-61.6c-4.3,0-5.9-3.4-3.5-7.7l25.8-46.1
			c2.4-4.2,7.8-7.7,12.1-7.7h61.6C3077.6,2875.3,3079.2,2878.7,3076.8,2883z"/>
		<path class="st18" d="M3172,2883l-1.8,3.3l-24,42.8c-2.4,4.3-7.8,7.7-12.1,7.7h-61.6c-4.3,0-5.9-3.4-3.5-7.7l25.8-46.1
			c2.4-4.2,7.8-7.7,12.1-7.7h61.6C3172.8,2875.3,3174.3,2878.7,3172,2883z"/>
		<path class="st18" d="M3267.1,2883l-1.8,3.3l-24,42.8c-2.4,4.3-7.8,7.7-12.1,7.7h-61.6c-4.3,0-5.9-3.4-3.5-7.7l25.8-46.1
			c2.4-4.2,7.8-7.7,12.1-7.7h61.6C3267.9,2875.3,3269.5,2878.7,3267.1,2883z"/>
		<path class="st18" d="M3362.3,2883l-1.8,3.3l-24,42.8c-2.4,4.3-7.8,7.7-12.1,7.7h-61.6c-4.3,0-5.9-3.4-3.5-7.7l25.8-46.1
			c2.4-4.2,7.8-7.7,12.1-7.7h61.6C3363.1,2875.3,3364.7,2878.7,3362.3,2883z"/>
		<path class="st18" d="M3457.4,2883l-1.8,3.2l-24,42.8c-2.4,4.3-7.8,7.7-12.1,7.7h-61.6c-4.3,0-5.9-3.4-3.5-7.7l25.8-46.1
			c2.4-4.2,7.8-7.7,12.1-7.7h61.6C3458.2,2875.3,3459.8,2878.7,3457.4,2883z"/>
		<path class="st18" d="M3552.6,2883l-1.8,3.2l-24,42.8c-2.4,4.3-7.8,7.7-12.1,7.7H3453c-4.3,0-5.9-3.4-3.5-7.7l25.8-46.1
			c2.4-4.2,7.8-7.7,12.1-7.7h61.6C3553.4,2875.3,3555,2878.7,3552.6,2883z"/>
		<path class="st18" d="M3120.7,2804.7l-1.8,3.3l-24,42.8c-2.4,4.2-7.8,7.7-12.1,7.7h-61.6c-4.3,0-5.9-3.4-3.5-7.7l25.8-46.1
			c2.4-4.3,7.8-7.7,12.1-7.7h61.6C3121.6,2797,3123.1,2800.4,3120.7,2804.7z"/>
		<path class="st18" d="M3215.9,2804.7l-1.8,3.2l-24,42.8c-2.4,4.2-7.8,7.7-12.1,7.7h-61.6c-4.3,0-5.9-3.4-3.5-7.7l25.8-46.1
			c2.4-4.3,7.8-7.7,12.1-7.7h61.6C3216.7,2797,3218.3,2800.4,3215.9,2804.7z"/>
		<path class="st18" d="M3311,2804.7l-1.8,3.2l-24.1,42.8c-2.4,4.2-7.8,7.7-12.1,7.7h-61.6c-4.3,0-5.9-3.4-3.5-7.7l25.8-46.1
			c2.4-4.3,7.8-7.7,12.1-7.7h61.6C3311.9,2797,3313.4,2800.4,3311,2804.7z"/>
		<path class="st18" d="M3406.2,2804.7l-1.8,3.2l-24,42.8c-2.4,4.2-7.8,7.7-12.1,7.7h-61.6c-4.3,0-5.9-3.4-3.5-7.7l25.8-46.1
			c2.4-4.3,7.8-7.7,12.1-7.7h61.6C3407,2797,3408.6,2800.4,3406.2,2804.7z"/>
		<path class="st18" d="M3501.4,2804.7l-1.8,3.2l-24,42.8c-2.4,4.2-7.8,7.7-12.1,7.7h-61.6c-4.3,0-5.9-3.4-3.5-7.7l25.8-46.1
			c2.4-4.3,7.8-7.7,12.1-7.7h61.6C3502.2,2797,3503.7,2800.4,3501.4,2804.7z"/>
		<path class="st18" d="M3596.5,2804.7l-1.8,3.2l-24,42.9c-2.4,4.2-7.8,7.7-12.1,7.7h-61.6c-4.3,0-5.9-3.4-3.5-7.7l25.8-46.1
			c2.4-4.3,7.8-7.7,12.1-7.7h61.6C3597.3,2797,3598.9,2800.4,3596.5,2804.7z"/>
		<path class="st18" d="M3164.6,2726.4l-1.8,3.2l-24,42.8c-2.4,4.3-7.8,7.7-12.1,7.7h-61.6c-4.3,0-5.9-3.4-3.5-7.7l25.8-46.1
			c2.4-4.2,7.8-7.7,12.1-7.7h61.6C3165.5,2718.7,3167,2722.2,3164.6,2726.4z"/>
		<path class="st18" d="M3259.8,2726.4l-1.8,3.2l-24,42.8c-2.4,4.3-7.8,7.7-12.1,7.7h-61.6c-4.3,0-5.9-3.4-3.5-7.7l25.8-46.1
			c2.4-4.2,7.8-7.7,12.1-7.7h61.6C3260.6,2718.7,3262.2,2722.2,3259.8,2726.4z"/>
		<path class="st18" d="M3355,2726.4l-1.8,3.2l-24,42.8c-2.4,4.3-7.8,7.7-12.1,7.7h-61.6c-4.3,0-5.9-3.4-3.5-7.7l25.8-46.1
			c2.4-4.2,7.8-7.7,12.1-7.7h61.6C3355.8,2718.7,3357.3,2722.2,3355,2726.4z"/>
		<path class="st18" d="M3450.1,2726.4l-1.8,3.2l-24,42.8c-2.4,4.3-7.8,7.7-12.1,7.7h-61.6c-4.3,0-5.9-3.4-3.5-7.7l25.8-46.1
			c2.4-4.2,7.8-7.7,12.1-7.7h61.6C3450.9,2718.7,3452.5,2722.2,3450.1,2726.4z"/>
		<path class="st18" d="M3545.3,2726.4l-1.8,3.3l-24,42.8c-2.4,4.3-7.8,7.7-12.1,7.7h-61.6c-4.3,0-5.9-3.4-3.5-7.7l25.8-46.1
			c2.4-4.2,7.8-7.7,12.1-7.7h61.6C3546.1,2718.7,3547.7,2722.2,3545.3,2726.4z"/>
		<path class="st18" d="M3640.4,2726.4l-1.8,3.3l-24,42.8c-2.4,4.3-7.8,7.7-12.1,7.7h-61.6c-4.3,0-5.9-3.4-3.5-7.7l25.8-46.1
			c2.4-4.2,7.8-7.7,12.1-7.7h61.6C3641.3,2718.7,3642.8,2722.2,3640.4,2726.4z"/>
		<path class="st18" d="M3208.6,2648.1l-1.8,3.2l-24.1,42.9c-2.4,4.2-7.8,7.7-12.1,7.7H3109c-4.3,0-5.9-3.4-3.5-7.7l25.8-46.1
			c2.4-4.3,7.8-7.7,12.1-7.7h61.6C3209.4,2640.4,3211,2643.9,3208.6,2648.1z"/>
		<path class="st18" d="M3303.7,2648.1l-1.8,3.2l-24.1,42.9c-2.4,4.2-7.8,7.7-12.1,7.7h-61.6c-4.3,0-5.8-3.4-3.5-7.7l25.9-46.1
			c2.4-4.3,7.8-7.7,12.1-7.7h61.6C3304.6,2640.4,3306.1,2643.9,3303.7,2648.1z"/>
		<path class="st18" d="M3398.9,2648.1l-1.8,3.2l-24.1,42.9c-2.4,4.2-7.8,7.7-12.1,7.7h-61.6c-4.3,0-5.9-3.4-3.5-7.7l25.8-46.1
			c2.4-4.3,7.8-7.7,12.1-7.7h61.6C3399.7,2640.4,3401.3,2643.9,3398.9,2648.1z"/>
		<path class="st18" d="M3494,2648.1l-1.8,3.2l-24,42.9c-2.4,4.2-7.8,7.7-12.1,7.7h-61.6c-4.3,0-5.9-3.4-3.5-7.7l25.8-46.1
			c2.4-4.3,7.8-7.7,12.1-7.7h61.6C3494.9,2640.4,3496.4,2643.9,3494,2648.1z"/>
		<path class="st18" d="M3589.2,2648.1l-1.8,3.2l-24,42.8c-2.4,4.2-7.8,7.7-12.1,7.7h-61.6c-4.3,0-5.9-3.4-3.5-7.7l25.8-46.1
			c2.4-4.3,7.8-7.7,12.1-7.7h61.6C3590,2640.4,3591.6,2643.9,3589.2,2648.1z"/>
		<path class="st18" d="M3684.4,2648.1l-1.8,3.2l-24,42.8c-2.4,4.2-7.8,7.7-12.1,7.7h-61.6c-4.3,0-5.9-3.4-3.5-7.7l25.8-46.1
			c2.4-4.3,7.8-7.7,12.1-7.7h61.6C3685.2,2640.4,3686.7,2643.9,3684.4,2648.1z"/>
	</g>
	<g>
		<path class="st21" d="M3507.1,2964l-24.3,43.3c-2.4,4.2-7.8,7.7-12.1,7.7h-47.1L3507.1,2964z"/>
		<path class="st21" d="M3550.8,2886.2l-24,42.8c-2.4,4.3-7.8,7.7-12.1,7.7H3468L3550.8,2886.2z"/>
		<path class="st21" d="M3594.7,2807.9l-24,42.9c-2.4,4.2-7.8,7.7-12.1,7.7h-46.6L3594.7,2807.9z"/>
		<path class="st21" d="M3499.5,2807.9l-24,42.8c-2.4,4.2-7.8,7.7-12.1,7.7h-46.6L3499.5,2807.9z"/>
		<path class="st21" d="M3404.4,2807.9l-24,42.8c-2.4,4.2-7.8,7.7-12.1,7.7h-46.6L3404.4,2807.9z"/>
		<path class="st21" d="M3309.2,2807.9l-24.1,42.8c-2.4,4.2-7.8,7.7-12.1,7.7h-46.6L3309.2,2807.9z"/>
		<path class="st21" d="M3214,2807.9l-24,42.8c-2.4,4.2-7.8,7.7-12.1,7.7h-46.6L3214,2807.9z"/>
		<path class="st21" d="M3118.9,2807.9l-24,42.8c-2.4,4.2-7.8,7.7-12.1,7.7h-46.6L3118.9,2807.9z"/>
		<path class="st21" d="M3638.6,2729.7l-24,42.8c-2.4,4.3-7.8,7.7-12.1,7.7h-46.6L3638.6,2729.7z"/>
		<path class="st21" d="M3543.4,2729.7l-24,42.8c-2.4,4.3-7.8,7.7-12.1,7.7h-46.6L3543.4,2729.7z"/>
		<path class="st21" d="M3448.3,2729.6l-24,42.8c-2.4,4.3-7.8,7.7-12.1,7.7h-46.6L3448.3,2729.6z"/>
		<path class="st21" d="M3353.1,2729.6l-24,42.8c-2.4,4.3-7.8,7.7-12.1,7.7h-46.6L3353.1,2729.6z"/>
		<path class="st21" d="M3258,2729.6l-24,42.8c-2.4,4.3-7.8,7.7-12.1,7.7h-46.6L3258,2729.6z"/>
		<path class="st21" d="M3162.8,2729.6l-24,42.8c-2.4,4.3-7.8,7.7-12.1,7.7h-46.6L3162.8,2729.6z"/>
		<path class="st21" d="M3682.5,2651.3l-24,42.8c-2.4,4.2-7.8,7.7-12.1,7.7h-46.6L3682.5,2651.3z"/>
		<path class="st21" d="M3587.4,2651.3l-24,42.8c-2.4,4.2-7.8,7.7-12.1,7.7h-46.6L3587.4,2651.3z"/>
		<path class="st21" d="M3492.2,2651.3l-24,42.9c-2.4,4.2-7.8,7.7-12.1,7.7h-46.6L3492.2,2651.3z"/>
		<path class="st21" d="M3397.1,2651.3l-24.1,42.9c-2.4,4.2-7.8,7.7-12.1,7.7h-46.6L3397.1,2651.3z"/>
		<path class="st21" d="M3301.9,2651.3l-24.1,42.9c-2.4,4.2-7.8,7.7-12.1,7.7h-46.6L3301.9,2651.3z"/>
		<path class="st21" d="M3206.8,2651.3l-24.1,42.9c-2.4,4.2-7.8,7.7-12.1,7.7H3124L3206.8,2651.3z"/>
		<path class="st21" d="M3455.6,2886.2l-24,42.8c-2.4,4.3-7.8,7.7-12.1,7.7h-46.6L3455.6,2886.2z"/>
		<path class="st21" d="M3360.4,2886.2l-24,42.8c-2.4,4.3-7.8,7.7-12.1,7.7h-46.6L3360.4,2886.2z"/>
		<path class="st21" d="M3265.3,2886.2l-24,42.8c-2.4,4.3-7.8,7.7-12.1,7.7h-46.6L3265.3,2886.2z"/>
		<path class="st21" d="M3170.1,2886.2l-24,42.8c-2.4,4.3-7.8,7.7-12.1,7.7h-46.6L3170.1,2886.2z"/>
		<path class="st21" d="M3075,2886.2l-24,42.8c-2.4,4.3-7.8,7.7-12.1,7.7h-46.6L3075,2886.2z"/>
		<path class="st21" d="M3411.9,2964.2l-24.2,43.1c-2.4,4.2-7.8,7.7-12.1,7.7h-46.9L3411.9,2964.2z"/>
		<path class="st21" d="M3316.8,2964l-24.3,43.3c-2.4,4.2-7.8,7.7-12.1,7.7h-47.1L3316.8,2964z"/>
		<path class="st21" d="M3221.4,2964.4l-24.1,42.9c-2.4,4.2-7.8,7.7-12.1,7.7h-46.7L3221.4,2964.4z"/>
		<path class="st21" d="M3126,2964.8l-23.9,42.5c-2.4,4.2-7.8,7.7-12.1,7.7h-46.3L3126,2964.8z"/>
		<path class="st21" d="M3030.7,2965.1l-23.7,42.2c-2.4,4.2-7.8,7.7-12.1,7.7H2949L3030.7,2965.1z"/>
	</g>
	<path class="st22" d="M3692.9,2621c-143.2,76.3-559.5,161.7-703.1,237.5l132.5-237.4l0.1-0.1H3692.9z"/>
</g>
<g id="Bush_1_">
	<path class="st2" d="M1451.8,2710.7c-0.4,14.4-5.1,28.2-11.2,41.2c-7.5,16.1-16.2,31.5-24.9,47c-7.8,14-15.9,27.8-24.2,41.4
		c-7.4,12.1-14.7,24.9-25,34.8c-20.9,20.3-51.9,18.8-75.1,35.1c-12.4,8.8-23.6,19.9-33.4,32c-8.8,10.9-16.4,22.6-22.9,34.5
		c-13.4,24.3-22.3,51.1-26.4,78.6c-0.2,1.5-1.1,2.4-2.6,2.5c-35.2,2.6-70.5,3.3-105.8,2.3c-30.4-0.9-60.8-3.1-91.1-6.6
		c-31.4-3.7-62.6-9.2-93.7-14.8c-15.6-2.8-31.2-5.6-46.8-8.4c-12.3-2.2-24.7-4.1-36.8-7.5c-1.5-0.4-3-0.9-4.5-1.4
		c5.6,21.1-71.8,48.6-71.8,48.6l-101.2,0c-2.1,0-4.2,0-6.4,0c-6.7-0.1-13.9-0.5-20.5-0.9c-34.6-2.1-69.8-7.6-103-17.9
		c-26.8-8.3-53.7-20.8-73.4-41.4c-19.7-20.6-29.4-48.3-26.6-76.7c2.9-29.2,17.3-56.8,37.9-77.3c26.1-26,60.7-40.2,97.1-47
		c-12-7.3-22.8-17.7-25-32.1c-2.4-15.6,4.5-30.9,16.1-41.2c9-8,20.1-12.7,31.8-15.2c-27.3-12.5-52.5-31.2-70.6-54.5
		c-20.4-26.2-31-59-27.4-92.3c3.5-32.5,20.3-62.5,49.6-78.2c32.9-17.7,73.8-17.7,109.9-12.7c0.8,0.1,1.6,0.2,2.4,0.4
		c-11.4-10-21.2-21.8-28.7-34.8c-10.2-17.9-16-39.5-11.3-60c4-17.6,15.6-34.1,32.4-41.4c18.4-8.1,41.6-4.3,59.8,2.7
		c-23.6-44.9-26-100.4-15-148.9c6.1-27.1,16.4-53.2,29.3-77.7c12.3-23.3,26.9-45.7,46.2-63.7c18.7-17.5,42.3-30.4,67.9-33.6
		c6.8-0.9,13.6-0.9,20.2-0.3c16.6,1.7,32.5,7.8,46.4,17.7c40.1,28.3,62.7,78.8,72,125.6c7.2,36.2,6.7,74.1-2.2,109.9
		c3.6-3.6,8-6.6,12.8-8.6c12.7-5.4,27-3,38.3,4.8c15.2,10.6,21.6,27.5,20.5,44.4c14.1-7.2,30-10.7,46.2-10.7
		c46.7,0,91.6,27.6,110.9,70.5c9.8,21.6,11.9,45.9,4.3,68.6c-1.3,4-2.9,7.8-4.8,11.6c3.2-1,6.5-1.8,9.9-2.1
		c14.1-1.4,28.5,4.7,37.8,15.3c8.3,9.5,11.4,22.1,8.9,34.4c-0.6,3-1.7,6.2-3.1,9.4c20.6-9.2,43.4-13.2,66-12.5
		c51.9,1.6,101,28.3,127.6,73.4c6.7,11.4,12.1,23.8,15.8,36.7C1463.8,2645.3,1463.7,2680,1451.8,2710.7z"/>
	<path class="st4" d="M1258,2942.3c-8.8,10.9-16.4,22.6-22.9,34.5c-13.4,24.3-22.3,51.1-26.4,78.6c-0.2,1.5-1.1,2.4-2.6,2.5
		c-35.2,2.6-70.5,3.3-105.8,2.3c-30.4-0.9-60.8-3.1-91.1-6.6c-31.4-3.7-62.6-9.2-93.7-14.8c-15.6-2.8-31.2-5.6-46.8-8.4
		c-12.3-2.2-24.7-4.1-36.8-7.5c-1.5-0.4-3-0.9-4.5-1.4c5.6,21.1-71.8,48.6-71.8,48.6l-101.2,0c-2.1,0-4.2,0-6.4,0
		c-6.7-0.1-13.9-0.5-20.5-0.9c-34.6-2.1-69.8-7.6-103-17.9c-26.8-8.3-53.7-20.8-73.4-41.4c-19.7-20.6-29.4-48.3-26.6-76.7
		c2.9-29.2,17.3-56.8,37.9-77.3c26.1-26,60.7-40.2,97.1-47c-12-7.3-22.8-17.7-25-32.1c-2.4-15.6,4.5-30.9,16.1-41.2
		c9-8,20.1-12.7,31.8-15.2c-27.3-12.5-52.5-31.2-70.6-54.5c-20.4-26.2-31-59-27.4-92.3c3.5-32.5,20.3-62.5,49.6-78.2
		c32.9-17.7,73.8-17.7,109.9-12.7c0.8,0.1,1.6,0.2,2.4,0.4c-11.4-10-21.2-21.8-28.7-34.8c-10.2-17.9-16-39.5-11.3-60
		c4-17.6,15.6-34.1,32.4-41.4c18.4-8.1,41.6-4.3,59.8,2.7c-23.6-44.9-26-100.4-15-148.9c6.1-27.1,16.4-53.2,29.3-77.7
		c12.3-23.3,26.9-45.7,46.2-63.7c18.7-17.5,42.3-30.4,67.9-33.6c6.8-0.9,13.6-0.9,20.2-0.3c-57.5,41.4-93.9,107.6-88.8,189.5
		c9.1,146.5,96.3,227.1,96.3,227.1s15.6,547.7,305.4,498.5C1207,2932.4,1238.4,2934,1258,2942.3z"/>
	<path class="st3" d="M1454.6,2613.6c-82.7-108.9-252.8-55.5-252.8-55.5c0-87.2-72.5-78.2-72.5-78.2
		c28.4-149.7-114.8-140.4-114.8-140.4c-6.1-72.6-51.1-61.1-51.1-61.1c3.6-3.6,8-6.6,12.8-8.6c12.7-5.4,27-3,38.3,4.8
		c15.2,10.6,21.6,27.5,20.5,44.4c14.1-7.2,30-10.7,46.2-10.7c46.7,0,91.6,27.6,110.9,70.5c9.8,21.6,11.9,45.9,4.3,68.6
		c-1.3,4-2.9,7.8-4.8,11.6c3.2-1,6.5-1.8,9.9-2.1c14.1-1.4,28.5,4.7,37.8,15.3c8.3,9.5,11.4,22.1,8.9,34.4c-0.6,3-1.7,6.2-3.1,9.4
		c20.6-9.2,43.4-13.2,66-12.5c51.9,1.6,101,28.3,127.6,73.4C1445.5,2588.3,1450.8,2600.7,1454.6,2613.6z"/>
</g>
<g id="Car_is_charging">
	<ellipse class="st23" cx="1643.6" cy="3059.6" rx="541.1" ry="26.9"/>
	<g>
		<path class="st11" d="M2180.9,2924.9c0,19.8,7.9,60.7-38.3,66c-27,3.1-72.4,6.2-105.5,8.2c-23.6,1.4-41,2.4-41,2.4l-110.9,7.9
			l-653.4,15.8c0,0-29,30.4-84.4-4.3c-40-25.1-49.1-68.2-43.1-107.2c2.3-14.9,6.8-29.2,12.7-41.7c20.3-43.1,50.3-69.2,71.4-92.2
			c0.9-0.9,1.7-1.9,2.5-2.8c21.1-23.8,34.3-27.7,34.3-27.7c-37-17.2,4-22.4,27.7-34.3c23.8-11.9,118.8-88.4,302.3-83.2
			c58.1,1.7,116.1,8.6,171.9,25.1c31,9.1,61.5,20.4,90.8,34c28.8,13.3,56.2,30.2,86.1,41.1c75.1,27.3,154.5,38.9,227.1,71.8
			c13.5,6.1,29.3,12.1,40.6,22.1C2194.1,2845.7,2180.9,2905.1,2180.9,2924.9z"/>
		<path class="st13" d="M2039.7,2973.9c0,8.7-0.9,17.1-2.6,25.2c-23.6,1.4-41,2.4-41,2.4l-110.9,7.9l-653.4,15.8
			c0,0-29,30.4-84.4-4.3c-40-25.1-49.1-68.2-43.1-107.2c20.9-36.6,80.8-71.1,134.2-70.8c61.9,0.4,125.4,34.5,144,102.8
			c1.9,7,7.8,12.2,15.1,12.7l386.8,27.9c7.1,0.4,13-5.2,13-12.3c0,0,0-0.1,0-0.1c0-67,54.3-121.3,121.2-121.3
			C1985.5,2852.6,2039.7,2906.9,2039.7,2973.9z"/>
		<path class="st18" d="M1755.8,2756c-54.9-0.7-167.8,0-260.8,0c-68.1,0-125.6-0.5-141.8-2.1c-30.1-3.1-82.5-21.1-67.3-30.9
			c0,0,113.5-83.2,279.8-70c38.1,3,70.7,7.4,98.9,12.7c94.9,17.8,139.5,45.8,173.1,65.2C1881.2,2756,1906.3,2757.8,1755.8,2756z"/>
		<path class="st7" d="M1931.8,2777.4c0,0,105.4,9.5,173.9,47.1c64.6,35.5,32.1,22.2-29.5,14.6
			C2031.5,2833.6,2041.9,2824.3,1931.8,2777.4z"/>
		<path class="st13" d="M1931.8,2777.4c0,0-100.7-9.7-318.5,16.7c-216.4,26.2-354.6,22.1-425-14.2c0.9-0.9,1.7-1.9,2.5-2.8
			c21.1-23.8,34.3-27.7,34.3-27.7s44.9,31.5,142.6,38.1C1465.4,2794.1,1805.4,2756.7,1931.8,2777.4z"/>
		<g>
			<path class="st24" d="M1702.3,2901.4H1664c-3.2,0-5.7-2.6-5.7-5.7v-23.6c0-3.2,2.6-5.7,5.7-5.7h38.2c3.2,0,5.7,2.6,5.7,5.7v23.6
				C1708,2898.9,1705.4,2901.4,1702.3,2901.4z"/>
			<path class="st7" d="M1517.7,2834.6v98.6h-26.8c-9.7,0-17.5-7.8-17.5-17.5v-63.6c0-9.7,7.8-17.5,17.5-17.5H1517.7z"/>
			<rect x="1517.7" y="2834.6" class="st25" width="44.3" height="98.6"/>
			<rect x="1562" y="2834.6" class="st24" width="44.3" height="98.6"/>
			<rect x="1606.3" y="2834.6" class="st26" width="44.3" height="98.6"/>
			<path class="st27" d="M1694.9,2852.1v63.6c0,9.7-7.8,17.5-17.5,17.5h-26.8v-98.6h26.8C1687.1,2834.6,1694.9,2842.4,1694.9,2852.1
				z"/>
		</g>
		<g>
			<ellipse class="st4" cx="1918.5" cy="2973.9" rx="96.1" ry="96.2"/>
			<ellipse class="st4" cx="1918.5" cy="2973.9" rx="59.8" ry="59.8"/>
			<g>
				<path class="st24" d="M1977.2,2985.3c-1.5,8.1-4.7,15.6-9.2,22.2c-17.6-17.4-35.1-27.9-39.5-23.5c-4.4,4.4,6.1,22,23.5,39.6
					c-6.6,4.5-14.1,7.6-22.1,9.2c-0.1-24.7-5.2-44.6-11.4-44.6c-6.2,0-11.2,19.9-11.3,44.6c-8.1-1.5-15.6-4.7-22.1-9.2
					c17.4-17.6,27.8-35.2,23.5-39.6c-4.4-4.4-22,6.1-39.5,23.5c-4.4-6.6-7.6-14.1-9.2-22.2c24.7-0.1,44.5-5.2,44.5-11.4
					c0-6.2-19.8-11.2-44.5-11.4c1.5-8.1,4.7-15.6,9.2-22.2c17.6,17.4,35.2,27.9,39.5,23.5c4.4-4.4-6.1-22-23.5-39.6
					c6.6-4.5,14.1-7.6,22.2-9.2c0.1,24.7,5.2,44.6,11.3,44.6c6.2,0,11.2-19.9,11.4-44.6c8.1,1.5,15.6,4.7,22.1,9.2
					c-17.4,17.6-27.8,35.2-23.5,39.6c4.4,4.4,22-6.1,39.5-23.5c4.4,6.6,7.6,14.1,9.2,22.2c-24.7,0.1-44.5,5.2-44.5,11.4
					C1932.7,2980.1,1952.5,2985.1,1977.2,2985.3z"/>
			</g>
		</g>
		<g>
			<ellipse class="st4" cx="1264.5" cy="2973.9" rx="96.1" ry="96.2"/>
			<ellipse class="st4" cx="1264.5" cy="2973.9" rx="59.8" ry="59.8"/>
			<g>
				<path class="st24" d="M1323.2,2985.3c-1.5,8.1-4.7,15.6-9.2,22.2c-17.6-17.4-35.1-27.9-39.5-23.5c-4.4,4.4,6.1,22,23.5,39.6
					c-6.6,4.5-14.1,7.6-22.1,9.2c-0.1-24.7-5.2-44.6-11.4-44.6c-6.2,0-11.2,19.9-11.3,44.6c-8.1-1.5-15.6-4.7-22.1-9.2
					c17.4-17.6,27.8-35.2,23.5-39.6c-4.4-4.4-22,6.1-39.5,23.5c-4.4-6.6-7.6-14.1-9.2-22.2c24.7-0.1,44.5-5.2,44.5-11.4
					c0-6.2-19.8-11.2-44.5-11.4c1.5-8.1,4.7-15.6,9.2-22.2c17.6,17.4,35.2,27.9,39.5,23.5c4.4-4.4-6.1-22-23.5-39.6
					c6.6-4.5,14.1-7.6,22.2-9.2c0.1,24.7,5.2,44.6,11.3,44.6c6.2,0,11.2-19.9,11.4-44.6c8.1,1.5,15.6,4.7,22.1,9.2
					c-17.4,17.6-27.8,35.2-23.5,39.6c4.4,4.4,22-6.1,39.5-23.5c4.4,6.6,7.6,14.1,9.2,22.2c-24.7,0.1-44.5,5.2-44.5,11.4
					C1278.7,2980.1,1298.5,2985.1,1323.2,2985.3z"/>
			</g>
		</g>
	</g>
	
		<ellipse transform="matrix(0.1602 -0.9871 0.9871 0.1602 -1677.1151 3850.969)" class="st3" cx="1424.6" cy="2911.1" rx="27.8" ry="27.8"/>
	<g>
		<path class="st27" d="M1050.2,2428.2v641.9H755.7v-641.9c0-17.1,13.9-31,31-31h232.6C1036.3,2397.2,1050.2,2411.1,1050.2,2428.2z"
			/>
		<path class="st24" d="M1050.2,2428.2v19.6H755.7v-19.6c0-17.1,13.9-31,31-31h232.6C1036.3,2397.2,1050.2,2411.1,1050.2,2428.2z"/>
		<g>
			<g>
				<path class="st3" d="M873.3,2529.3c-7.2-7.2-15.1-14-23.4-20.5c-0.7-0.5-2-0.5-2.3,0.3c-13,31.3-2.6,66.3,27.4,89.4
					c7.4,5.7,33.8,21.8,33.8,21.8s2.3,0,2.4-1.1C915.7,2586.5,898.7,2554.7,873.3,2529.3z"/>
				<path class="st3" d="M908.7,2620.4c1.5,1.3,21-10.6,29.4-18.1c23.6-20.8,33.5-48.3,22.8-74.2c-0.3-0.7-1.4-0.7-1.9-0.2
					c-6.9,5.3-13.5,11-19.5,17C918.4,2565.9,888.5,2601.9,908.7,2620.4z"/>
			</g>
		</g>
		
			<ellipse transform="matrix(0.7071 -0.7071 0.7071 0.7071 -1687.4321 1447.5549)" class="st24" cx="903.6" cy="2760.7" rx="88" ry="88"/>
		
			<ellipse transform="matrix(0.175 -0.9846 0.9846 0.175 -1972.5829 3167.281)" class="st7" cx="903.6" cy="2760.7" rx="49" ry="49"/>
		<rect x="755.7" y="3013.2" class="st24" width="294.5" height="56.8"/>
	</g>
	<g>
		<g>
			<g>
				<path class="st11" d="M1311.5,3040.9H932.1c-7.7,0-13.9-6.2-13.9-13.9v-266.3c0-8.3-6.9-15-15.3-14.6c-7.8,0.4-13.9,7.1-13.9,15
					v278.3c0,16.9,13.7,30.7,30.6,30.7h402.1C1318.3,3060.4,1314.9,3050.7,1311.5,3040.9z"/>
			</g>
		</g>
	</g>
	<path class="st20" d="M1755.8,2756c-38.2-0.5-104.3-0.3-172.3-0.1c-29.9,0.1-60.1,0.1-88.5,0.1l169.6-90.2
		c67,12.6,108.9,30.2,139.5,46.3c12.8,6.7,23.7,13.2,33.5,18.9C1881.2,2756,1906.3,2757.8,1755.8,2756z"/>
	<path class="st22" d="M1755.8,2756c-38.2-0.5-104.3-0.3-172.3-0.1l220.6-43.8c12.8,6.7,23.7,13.2,33.5,18.9
		C1881.2,2756,1906.3,2757.8,1755.8,2756z"/>
	<path class="st26" d="M1439.2,2911.1v128.3c0,16.9-13.7,30.7-30.7,30.7h-137.7l-48.3-29.2h173.6c7.7,0,13.9-6.2,13.9-13.9v-115.5
		c0-7.8,6-14.6,13.9-15C1432.2,2896.1,1439.2,2902.8,1439.2,2911.1z"/>
	<polygon class="st27" points="1273.5,3070.1 1111.8,3070.1 1092.4,3040.9 1245.9,3040.9 	"/>
</g>
</svg>
